<svg width="23" height="22" viewBox="0 0 23 22" fill="none" xmlns="http://www.w3.org/2000/svg">
<g clip-path="url(#clip0_19_2)">
<path fill-rule="evenodd" clip-rule="evenodd" d="M6.92324 3.06166C8.28872 2.30464 9.856 1.92622 11.6253 1.92622C13.3293 1.92622 14.8473 2.29386 16.18 3.02914C17.5124 3.76443 18.5499 4.79722 19.2926 6.12716C20.0355 7.45728 20.4066 8.98721 20.4066 10.7173C20.4066 11.3877 20.3631 11.9933 20.2756 12.5339H6.48105C6.59026 13.9612 7.12542 15.1074 8.08653 15.9726C9.04763 16.8375 10.2274 17.2702 11.6253 17.2702C13.6349 17.2702 15.0548 16.4376 15.885 14.7723H19.9152C19.3691 16.4158 18.3805 17.762 16.9499 18.8109C15.519 19.8598 13.7441 20.3843 11.6253 20.3843C9.89951 20.3843 8.35418 20.0004 6.98889 19.2328C5.6236 18.465 4.55329 17.3836 3.77775 15.9888C3.00222 14.5939 2.61464 12.9772 2.61464 11.139C2.61464 9.3008 2.99152 7.68431 3.74491 6.28936C4.49867 4.8944 5.55813 3.81849 6.92324 3.06166ZM22.485 11.0012C22.485 4.92652 17.5111 0.00239563 11.3754 0.00239563C5.23949 0.00239563 0.265747 4.92652 0.265747 11.0012C0.265747 17.0759 5.23949 22 11.3754 22C17.5111 22 22.485 17.0759 22.485 11.0012ZM11.4615 5.04049C10.1727 5.04049 9.0696 5.44594 8.15201 6.25702C7.23462 7.06791 6.68839 8.16534 6.5137 9.54954H16.5076C16.4856 8.18709 15.994 7.09494 15.0331 6.27308C14.0718 5.45141 12.8814 5.04049 11.4615 5.04049Z" fill="#A87F3C"/>
</g>
<defs>
<clipPath id="clip0_19_2">
<rect width="23" height="22" fill="white"/>
</clipPath>
</defs>
</svg>
