

<svg xmlns="http://www.w3.org/2000/svg" xml:space="preserve" width="514px" height="552px" shape-rendering="geometricPrecision" text-rendering="geometricPrecision" image-rendering="optimizeQuality" fill-rule="evenodd" clip-rule="evenodd"
viewBox="0 0 514 552.001"
 xmlns:xlink="http://www.w3.org/1999/xlink">
 <g id="Camada_x0020_1">
  <metadata id="CorelCorpID_0Corel-Layer"/>
  <g id="_277949208">
   <path id="_277950552" fill="#6B5933" d="M68.5241 371.318c6.81851,-1.58859 69.88,-0.660237 82.3761,-0.660237l83.0363 0c1.84961,6.92836 7.62757,9.86813 8.20749,10.2449l0.792521 0.52441c0.458268,0.281103 0.54567,0.381497 1.25669,0.721655 0.242126,0.115748 3.20079,1.18819 3.3756,1.2378 1.52599,0.425198 6.50434,1.03347 8.12009,1.10551l32.2867 3.30001c1.41733,2.11772 1.23071,0.672048 1.91693,3.35552 1.43386,5.60434 2.14843,17.5075 2.70827,23.6516 0.250394,2.74489 0.720474,2.14961 1.12795,4.14449 0.481891,2.36103 -0.292914,7.45513 1.37599,12.463l0.373229 0.944883c0.0732285,0.197244 0.285827,0.761812 0.360237,0.959057 1.18583,3.15827 1.91575,4.1067 4.24253,6.30119 5.20867,4.91812 7.63938,4.14331 15.5729,4.85552l0 40.2001 -247.13 0 0 -113.349zm297.214 -0.660237c4.19883,2.01496 12.9886,0.733466 17.5512,-0.901182l9.44647 -5.05276c7.40316,-4.80591 3.21024,-1.84607 16.0217,-0.811419 5.34095,0.431103 12.6827,-1.04055 16.9666,-3.763 7.39844,-4.70079 8.75789,-4.90158 14.1095,-12.2504l3.66851 -6.21733c6.5008,0 10.7705,-1.55197 16.4752,-3.95434 3.22205,2.15788 5.71654,5.30788 8.39175,8.08466 0.800789,0.832678 1.19646,1.18937 2.03859,1.91575l4.37363 4.19174c0.980316,1.15866 1.1126,1.38898 2.15197,2.4626l5.50395 5.03977c0.090945,0.100394 0.219685,0.246851 0.309449,0.349607l8.22875 8.24647c0.974411,0.937797 1.70433,2.63622 1.95237,3.97796 0,2.73662 -2.65158,1.9004 -5.63032,2.27717 -4.95828,0.628347 -16.9217,2.21457 -21.3945,2.33032 -1.4067,0.0366142 -2.37992,-0.0956694 -3.77008,0.185433 -1.34882,0.271654 -1.64292,0.689765 -2.99646,0.956694 -5.65513,1.12087 -6.60946,0.00944883 -12.8362,2.98111 0,0 -1.24961,0.617717 -1.31811,0.657875 -0.895277,0.514961 -0.307087,0.131103 -1.19528,0.781891 -7.60277,5.563 -5.97875,12.2929 -7.15513,16.5685 -0.0460631,0.165355 -0.127559,0.32126 -0.179528,0.479528 -0.844489,2.563 -0.564568,6.67324 -1.51654,9.68624 -1.3063,4.13032 -0.995671,9.54923 -1.34646,14.4709 -0.194882,2.72245 -1.02284,3.86694 -1.21299,6.69568 -0.386221,5.75552 -1.80355,6.05316 -5.4945,2.71418 -0.80197,-0.725198 -1.25079,-1.16457 -2.00788,-1.95709 -0.816143,-0.851576 -1.15866,-1.30394 -1.87441,-2.07992l-3.93071 -3.97678c-4.09961,-3.60473 -9.20671,-8.73072 -12.8894,-12.8126 -0.090945,-0.100394 -0.219685,-0.248032 -0.311812,-0.347245l-9.52797 -9.58348c-0.188977,-0.193701 -0.947246,-0.938978 -0.993309,-0.982679l-2.07756 -1.87677c-1.51063,-1.38898 -2.62087,-2.4626 -3.89764,-4.01221 -1.1126,-1.35118 -0.451182,-0.805513 -1.82835,-2.12481l-7.91458 -7.90041c-0.642521,-0.702757 0.0271654,-0.0531497 -0.998033,-0.980316l-8.92442 -8.86773c-1.81181,-1.55197 -3.05788,-2.87126 -3.96733,-4.60158zm-115.327 -5.93032c0,-1.74685 4.73505,-6.03072 6.32245,-7.51773 0.0992128,-0.0921261 0.240945,-0.226772 0.340158,-0.318898 1.38425,-1.27323 2.36457,-2.05394 3.69213,-3.5563l1.80355 -2.15079c0.127559,-0.142914 0.494883,-0.551576 0.627166,-0.689765l1.34882 -1.2874c3.8941,-3.44292 2.71063,-2.07638 6.2882,-6.23387 3.57284,-4.15276 2.21339,-1.31929 7.91458,-8.56064 2.51103,2.64804 3.32599,2.25473 6.16654,3.7193 6.90592,3.55749 6.54214,2.99764 14.9221,3.53032 5.61024,8.37757 6.1571,13.0465 19.5414,19.3406 3.06969,1.44331 5.72009,2.31496 9.44765,2.41536 5.37402,0.144095 5.89135,0.78071 8.8323,3.68741l14.4921 14.5051c0.0992128,0.090945 0.240945,0.225591 0.337796,0.32126l4.02402 4.54371 -6.54214 5.97875c-0.0980316,0.0933072 -0.237402,0.229134 -0.334252,0.324804l-14.7189 14.9362c-2.06457,1.81772 -1.69843,1.05473 -3.75709,3.49253 -4.09134,4.84135 -5.23111,4.74095 -9.46183,9.64844 -3.17363,3.68268 -5.38702,6.04253 -9.33899,7.13623 -2.01733,-3.01182 -1.32402,-5.80749 -2.34449,-12.8126 -0.800789,-5.4945 -0.779529,-10.6795 -1.70788,-13.4504 -1.1941,-3.55867 -0.278741,-3.32481 -0.575198,-6.67442 -0.0307087,-0.348426 -1.72796,-10.4398 -2.69882,-12.4583 -1.28504,-2.67048 -2.34331,-4.64764 -4.69253,-6.51025 -0.10748,-0.0862206 -0.265748,-0.199607 -0.375591,-0.283465l-7.47521 -3.72756c-5.39292,-1.35591 -7.7445,-0.832678 -13.6666,-1.49173 -2.17559,-0.242126 -3.55867,-1.01221 -6.04962,-1.19882 -7.08781,-0.533859 -4.0252,-0.69567 -6.8256,-1.08307l-14.8772 -0.937797c-0.422835,-1.76811 -0.659056,-1.24252 -0.659056,-2.63622zm229.995 -154.869c0,4.45749 1.31811,8.27127 4.35119,11.465 6.04607,6.36261 8.14962,16.2024 3.5315,24.0969 -3.24922,5.55591 -9.97324,9.24568 -7.62639,17.5524 1.57796,5.58426 3.85394,8.43663 2.21929,13.9453 -4.45631,15.0201 -8.37049,10.8484 -16.5827,17.6859 -3.10512,2.58426 -4.62875,7.68308 -4.97009,11.5051 -0.422835,4.72796 -1.03465,6.72639 -2.91378,10.2673 -1.82835,3.44174 -3.78898,4.80946 -7.59922,6.89765 -4.96772,2.72599 -9.8008,1.77402 -13.4823,2.9941 -0.154725,0.0507875 -0.314174,0.137008 -0.464174,0.194882 -5.49686,2.10709 -6.74647,5.06103 -9.4382,9.67206l-3.67678 4.88977c-0.102756,0.090945 -0.261024,0.206693 -0.36378,0.296457 -15.3107,13.0465 -22.376,-1.52953 -33.5752,4.64764l-3.95434 2.63504c-6.85631,5.6256 -13.741,8.35041 -22.291,4.45158 -6.07914,-2.77323 -10.4752,-12.0591 -22.3134,-7.53781 -3.82678,1.46103 -8.99175,1.98898 -13.1587,0.832678l-2.38583 -0.908269c-2.30197,-1.00984 -3.48426,-2.08583 -5.38347,-3.84449l-3.64725 -4.26024c-0.0779529,-0.116929 -0.187796,-0.275197 -0.264567,-0.393308l-0.760631 -1.21654c-2.30552,-4.32166 -2.4189,-6.23741 -7.74332,-8.73308 -5.80158,-2.71772 -17.3221,0.183071 -22.9866,-10.6229l-1.40906 -2.5441c-3.24922,-6.21261 -0.451182,-14.7957 -6.86812,-19.4929l-8.6823 -5.1567c-0.799608,-0.522048 -2.14843,-1.11969 -2.68347,-1.93111l-4.9878 -13.4634c-0.589371,-3.29174 2.63622,-9.01655 2.63622,-15.8162 0,-4.07245 -3.99686,-7.84489 -6.18899,-10.2862l-4.35473 -12.1205c0,-2.24055 0.777167,-4.71497 1.37126,-6.53741l2.47559 -4.77284c0.0779529,-0.116929 0.18189,-0.282284 0.262205,-0.396851 0.0803151,-0.114567 0.186614,-0.277559 0.269292,-0.389764 0.680316,-0.925986 1.05945,-1.24725 1.84607,-2.10827 9.52206,-10.4114 -1.05591,-19.167 2.8063,-30.802 0.207874,-0.625985 1.24606,-2.82993 1.44213,-3.17245l5.43426 -5.76851c1.38307,-1.22835 3.2256,-1.98662 4.66772,-2.58189 11.2394,-4.63938 7.03229,-14.765 10.1351,-20.8382l1.15276 -2.14252c0.426379,-0.803151 0.471261,-0.981498 0.92008,-1.71496l1.41851 -1.87677c0.090945,-0.100394 0.231496,-0.236221 0.323623,-0.335434l2.6752 -2.59725c6.66143,-4.9382 9.62482,-2.42717 16.0441,-4.38544 7.44214,-2.2689 7.07954,-4.49883 10.5792,-10.5095l3.98741 -5.2382c4.19174,-4.513 12.9862,-6.67088 21.6083,-3.68032 3.39331,1.17756 5.10473,1.11142 8.77324,1.11142 2.92914,0 8.9634,-6.7193 14.1189,-8.94805 2.95748,-1.27677 7.87678,-1.42559 11.5677,-0.922442 1.43032,0.194882 0.758269,0.111024 1.56851,0.408662 0.15,0.0543308 0.308268,0.145276 0.452363,0.206693l7.58505 4.93583c4.06772,3.4878 7.52127,4.3193 12.815,4.3193 2.80276,0 7.52481,-4.6878 18.3709,-1.23543l4.34292 2.24646c3.14056,2.2689 5.54528,5.92324 7.07127,9.40395 0.585828,1.33583 -0.199607,-0.0625985 0.627166,1.35l0.827954 1.14803c2.0941,2.75315 3.98032,4.05237 7.39135,5.13072 2.23229,0.703938 2.78386,1.07126 5.50513,1.08543 2.75315,0.0141733 5.31969,0.0354331 7.62639,1.6004 2.18386,1.4811 3.65079,1.87796 5.40591,3.81969 0.367323,0.407481 0.659056,0.797245 0.897639,1.07953l0.907088 1.07008c4.86969,5.88072 2.40355,13.8461 6.21851,20.1414 0.0732285,0.122835 0.179528,0.283465 0.258662,0.400394 0.0779529,0.115748 0.19252,0.272835 0.275197,0.383859 1.08189,1.45866 0.0885828,0.223229 0.904726,1.07244l7.35474 4.50709c5.25237,2.76496 8.53112,7.5567 9.81498,13.2508 1.90394,8.44844 1.82244,1.94764 -0.274016,10.4799 -0.465355,1.89449 -1.80827,4.25552 -1.80827,6.1004zm-411.883 -143.006l247.13 0 0 31.6323 -247.13 0 0 -31.6323zm-63.9237 -39.541l0 496.896c0,6.32954 1.61929,10.8768 5.20394,15.2256l2.42008 2.85237c1.73032,1.74213 3.93071,3.40394 6.1878,4.35473 2.0315,0.855119 4.47638,2.19685 6.61773,2.61024l37.5638 0 5.93032 -5.93151c0,-3.93071 0.343701,-6.73584 -3.0756,-9.44647 -3.7689,-2.98819 -30.163,0.0744096 -36.9804,-1.24134 -1.91457,-0.369686 -3.58701,-1.52599 -4.92639,-2.98229 -1.71378,-1.86142 -1.86969,-3.38032 -1.84725,-6.06025 0.488977,-61.9513 0.0389764,-123.929 0.0389764,-185.882 0,-82.5958 0,-165.193 0,-247.789 0,-8.65513 -0.540946,-60.5328 -0.00236221,-64.5863l0.900001 -2.39646c0.904726,-1.37717 2.25591,-2.29489 3.62717,-2.96221 1.47874,-0.720474 2.48504,-1.19764 4.65237,-1.27914 14.2465,-0.531497 28.6335,0.0507875 42.8859,0.0507875 25.6666,0 277.523,-0.762993 281.946,0.109843 1.77756,0.350788 0.922442,0.274016 1.48465,0.493702 8.6008,3.36024 5.87481,11.4532 5.87481,19.8248l0.00354331 54.0426c0.0259843,4.50709 1.07953,7.3134 -3.88938,8.63269 -2.25473,0.59882 -1.6878,0.323623 -3.71339,1.55788 -0.168898,0.101575 -0.644883,0.402757 -0.807875,0.510237l-5.55119 3.68386c-2.85591,2.17323 -4.07953,1.4941 -8.35041,0.67441 -4.06064,-0.779529 -4.81182,-1.15748 -9.32364,-1.22244 1.00158,-2.08819 1.87559,-44.4095 -0.387402,-49.0383 -1.93819,-3.96733 -5.24528,-6.83151 -9.49726,-7.63702l-258.333 0c-1.20355,0 -5.29725,1.93347 -6.73466,3.81024l-3.80906 7.39253 0 43.4953c0,0.83386 2.19922,4.41615 2.8063,5.10119 5.80985,6.56812 11.6268,4.78347 20.2595,4.78347l233.938 1.3063c-1.82126,1.66299 -3.93308,3.30237 -5.16143,5.38347l-1.73032 2.88308c-0.312993,0.509056 -0.442914,0.745277 -0.737009,1.24016l-1.01575 1.62047c-0.650788,0.747639 0.0425198,0.270473 -1.05236,0.924805 -1.75158,1.05 -3.5067,0.768899 -6.05552,1.1941 -4.92402,0.820867 -9.57875,3.44882 -13.6795,6.08977 -1.00984,0.650788 -0.690946,0.335434 -1.61103,1.0252l-3.26339 3.32717c-0.132284,0.138189 -0.517324,0.530316 -0.649607,0.667324l-4.57324 5.97166 -213.52 0c-2.37874,0.628347 -8.13781,8.2193 -1.38898,14.5677 1.25079,1.17638 2.50867,1.7315 4.68072,1.91103 8.90789,0.734647 84.6049,-0.00354331 95.5596,-0.00354331l109.396 0 0 1.97717c-2.6693,0.222048 -7.65592,3.53386 -9.40159,5.09646l-3.73347 4.1752c-0.090945,0.0992128 -0.232678,0.233859 -0.323623,0.334252l-2.35748 3.57402c-12.5504,0 -29.3646,-0.714568 -41.5583,-0.0401575 -7.29804,0.402757 -10.3134,9.85159 -5.33977,14.6457 0.0980316,0.0944883 0.237402,0.230315 0.340158,0.318898 0.940159,0.813781 2.49331,1.35827 3.72166,1.55079l36.9048 0 2.63622 15.8162c-7.98308,0 -32.7579,-0.73819 -39.5575,-0.0153544 -3.18662,0.337796 -5.80158,3.60827 -6.57284,6.60592 -0.845671,3.28465 1.37599,7.83545 4.48583,9.35198 3.02126,1.47402 28.6229,0.532678 33.078,0.532678 -1.87559,5.6256 -1.31929,9.87876 -1.31929,15.8162 -5.37757,0 -28.4445,-0.993309 -31.8024,0.487796 -1.00984,0.445276 -3.77717,3.1252 -4.44213,5.44371 -0.837403,2.91497 0.538584,6.03072 2.55709,7.98545 0.0980316,0.0956694 0.242126,0.226772 0.34252,0.318898 1.08307,1.00276 2.11181,1.91339 3.74292,2.1874 2.35512,0.39567 35.1083,0.602363 39.4879,0.712206 -0.311812,3.74764 -0.0484253,0.379134 -0.933072,3.02126 -1.33937,4.00631 -1.27087,7.47639 -1.70315,11.4756 -8.34686,0 -16.6949,0 -25.043,0 -3.92127,0 -11.3362,-1.05118 -14.2571,0.901182 -1.68189,1.12441 -3.66142,3.75591 -4.1941,5.68938 -1.22953,4.45512 2.79685,9.42639 7.24371,9.89057 10.1634,1.06063 26.3717,-0.536221 37.6158,-0.0531497 4.9382,0.212599 3.95197,1.23543 4.97363,2.93504 1.6878,2.8004 4.16339,6.03308 6.6508,7.84844l6.78072 5.08111 -189.136 0c-4.5815,0 -9.34726,-0.140551 -13.8945,-0.0555119 -3.16063,0.0578741 -4.97954,1.06299 -6.21615,3.66969 -1.85788,3.92008 -1.50355,7.86379 1.75748,10.7847 2.0504,1.83662 1.43858,1.46457 5.12481,1.46339l206.319 -0.0460631c-0.597639,2.23937 -0.0531497,0.777167 -1.58504,2.36811l-16.9488 16.6607c-0.380316,0.366142 -0.451182,0.392127 -1.00158,0.976773l-7.91104 7.90513c-1.79764,1.78347 -2.27008,3.66379 -4.33583,4.23072 -3.64961,1.00276 -139.569,0.15 -160.649,0.15 -4.70788,0 -11.4036,-0.895277 -14.8547,0.9626 -2.24646,1.20827 -4.19292,3.23032 -5.29135,5.25237l-1.60158 4.32993 0 124.553c0,2.75197 2.58544,6.22088 4.16694,7.69489l0.700395 0.617717c1.8626,1.51536 4.59568,2.53465 6.9945,2.89016l257.015 0c3.04961,0 8.56301,-4.3441 10.1091,-9.00238 1.36772,-4.11969 0.434646,-52.2225 0.434646,-58.8757 2.50867,-0.584647 4.01694,-2.94567 5.67639,-4.86851l5.0882 -4.79646c0.190158,-0.16063 1.04764,-0.903545 1.05945,-0.917718l3.70394 -4.20473c0.0956694,-0.0956694 0.236221,-0.231496 0.33189,-0.327166l3.47127 -3.11812c3.31063,-2.77205 5.45788,-6.13702 8.91734,-8.876 0.108662,-0.0850395 0.264567,-0.201969 0.370867,-0.289371l2.35394 -2.25827 0 114.669c0.0011811,2.89843 0.713387,6.87285 -0.4063,9.47836 -0.0814962,0.190158 -0.38504,0.662599 -0.49252,0.825592 -4.1941,6.30237 -16.3831,4.1941 -23.4839,4.1941 -20.1662,0 -238.561,-0.760631 -243.121,0.0555119 -6.3756,1.14095 -7.41497,10.0748 -3.44292,13.8768 0.0980316,0.0944883 0.244489,0.223229 0.344882,0.314174 1.40079,1.23662 3.17245,1.98307 5.01969,2.22992l262.288 0c1.36063,0 4.32166,-1.62756 6.98623,-2.89961 4.12678,-1.9689 6.45001,-4.65119 9.06379,-8.07048 1.52953,-2.00079 1.92166,-2.74252 2.79804,-5.11064l0.553938 -1.42323c0.274016,-0.800789 0.367323,-1.08543 0.579922,-2.0563 1.40551,-6.42166 0.446457,-107.78 0.446457,-119.492 1.2189,0.814962 1.61693,1.60866 2.59252,2.68111 2.92914,3.22087 4.73387,3.87875 8.59017,8.54293 0.0874017,0.105118 0.209055,0.258662 0.3,0.359056l1.02166 0.955513c0.943702,0.784253 0.568111,0.369686 1.52481,1.1126 0.108662,0.0838584 0.265748,0.199607 0.372048,0.285827 0.106299,0.0862206 0.255119,0.211418 0.359056,0.3l1.01693 0.960238c0.0968505,0.0933072 0.230315,0.237402 0.325985,0.33189l6.86103 6.97914c0.106299,0.0862206 0.2563,0.210237 0.361418,0.297638 3.22441,2.74843 -2.35985,-2.24055 0.687403,0.63071l5.3067 5.89725c1.37717,1.43858 -0.103937,-0.034252 1.39252,1.2437l5.76143 5.44017c5.05867,5.58662 15.6343,7.07363 22.0961,3.43938 1.58268,-0.889371 3.17363,-2.06929 4.42796,-3.47953 1.83662,-2.06339 3.08386,-3.07087 4.19646,-5.68938l0.607088 -1.37008c1.81772,-4.58741 1.15276,-10.454 2.29843,-14.8347 0.88819,-3.40276 1.98898,-22.7445 2.39292,-27.2634 2.86418,-1.03701 -0.324804,-0.177166 2.89725,-1.71496 1.62638,-0.777167 2.3752,-0.838584 4.35473,-0.917718 3.64725,-0.147638 5.57954,-1.1752 9.21261,-1.3311 7.16458,-0.309449 20.6221,-1.60984 27.0355,-3.27993 4.03111,-1.05 4.24489,-0.757088 6.95552,-3.58819l3.83977 -4.0689c3.19371,-4.62757 3.72048,-13.5709 1.53898,-18.528 -1.83544,-4.17048 -9.53151,-11.8075 -13.3642,-14.9729l-8.56655 -8.56773c-3.71693,-3.07087 -6.73111,-6.90237 -10.2425,-10.187l-0.688584 -0.63071c-5.82875,-5.25591 1.31221,-5.70355 2.72835,-22.4977 2.15197,-0.501969 3.30473,-1.32402 4.8567,-2.39174 0.207874,-0.142914 1.01693,-0.762993 1.12795,-0.849214 0.761812,-0.594095 1.08189,-0.88819 1.86733,-1.42914l1.93937 -1.35473 7.47403 -10.3205c3.50434,-5.4567 4.48229,-12.0366 4.48229,-18.5823 0,-6.78072 -3.46654,-8.7945 -0.916537,-12.7252l5.30198 -8.59135c3.1878,-6.07678 2.863,-13.578 2.863,-20.2016 0,-1.75158 -1.49764,-6.77599 -2.17677,-8.36576 -0.0602363,-0.142914 -0.146457,-0.31063 -0.21378,-0.446457l-3.91536 -6.62836c-6.17836,-9.08269 -2.35985,-1.07244 -0.942521,-15.5327 0.454725,-4.64528 -0.796064,-10.5803 -2.27599,-14.2004 -0.453544,-1.10788 -0.590552,-1.62874 -0.882285,-2.41181 -1.33347,-3.57638 -6.43347,-10.9122 -9.90592,-13.1599l-8.68348 -4.49646c0,-3.9189 0.0885828,-3.40276 -0.817324,-6.43229 -0.902364,-3.01772 -1.26024,-5.66694 -2.60552,-8.59844 -2.37166,-5.16733 -6.31891,-10.7292 -11.1343,-13.9075 -4.41142,-2.91142 -9.31773,-5.7319 -14.4933,-6.59529 -1.30276,-0.217323 -2.09528,-0.121654 -3.55867,-0.394489 -2.08701,-0.390945 -2.70709,-0.559843 -3.77717,-2.15552 -0.079134,-0.11811 -0.161811,-0.296457 -0.237402,-0.421654 -0.0744096,-0.125197 -0.152362,-0.303544 -0.22441,-0.433465 -1.5626,-2.80276 -2.99174,-5.20394 -5.24528,-7.2756 -0.100394,-0.0921261 -0.244489,-0.223229 -0.344882,-0.315355l-10.7126 -7.73859c-4.76103,-2.10355 -5.43662,-1.4504 -9.23151,-2.6315 -4.3819,-1.36181 -7.01812,-1.52244 -11.3504,-0.357875 -4.33465,1.16693 -7.76104,1.72441 -11.6882,-0.986222 -2.19213,-1.51181 -3.51615,-2.82402 -5.92088,-3.96497 -9.71813,-4.60631 -6.85159,5.54528 -6.85159,-42.5741 0,-11.1532 2.82638,-37.969 -3.45827,-45.9674 -0.724017,-0.921261 -1.24843,-1.30394 -2.17559,-2.4378l-1.14095 -1.49528c-3.58229,-4.66536 -9.17127,-6.69214 -14.9729,-7.43387l-332.142 0c-2.13426,0 -3.08386,0.154725 -4.62639,0.644883 -2.2252,0.7063 -0.368505,0.133465 -1.89213,0.744096 -2.12363,0.849214 -3.96733,1.93111 -5.83584,3.38977 -0.179528,0.141733 -1.38071,1.15512 -1.43032,1.20591l-3.9378 4.62875c-2.89016,3.78662 -4.02402,8.45198 -4.02402,13.7693z"/>
   <path id="_277950528" fill="#6B5933" d="M367.716 329.141c11.1142,0 21.5646,-0.62008 31.5378,-4.04883 9.21497,-3.17008 17.2949,-6.67088 25.3654,-12.1984l16.5225 -14.4508c0.0956694,-0.0968505 0.236221,-0.231496 0.330709,-0.329528l5.94095 -7.23899c0.0732285,-0.125197 0.16063,-0.298819 0.23504,-0.424016l5.76733 -9.38978c1.91811,-2.79804 2.97402,-5.6008 4.35709,-8.82285l1.68071 -3.59174c0.278741,-0.778348 0.408662,-1.33583 0.778348,-2.51693 0.511418,-1.6311 0.855119,-2.87245 1.44803,-4.48229 0.740552,-2.01024 0.223229,-0.201969 0.698033,-1.93819 0.284646,-1.03701 0.307087,-1.65591 0.587009,-2.70827 1.86024,-7.0193 2.94449,-15.8965 2.94449,-23.4166 0,-3.0626 -0.569292,-3.58583 -1.06181,-6.1878 -0.80197,-4.23898 -0.315355,-8.67167 -1.56614,-12.9319 -0.311812,-1.06536 -0.421654,-1.75985 -0.814962,-3.13937 -1.14803,-4.03938 -4.91339,-16.5059 -7.47521,-18.2256 -7.84962,-5.26772 -18.2268,-0.251575 -13.5555,10.252l2.76496 6.46891c0.0637796,0.13937 0.148819,0.307087 0.21378,0.445276 0.0637796,0.13937 0.151181,0.305906 0.21378,0.445276l0.59882 1.37835 2.13426 8.40946c0.537402,3.66969 0.698033,6.5693 0.745277,10.4752 0.0814962,6.62954 0.478347,13.4256 -0.837403,20.2158l-2.63859 9.22442c-2.63977,5.8819 -4.58741,11.5807 -8.14962,16.8922 -0.0531497,0.079134 -0.857482,1.03701 -1.18701,1.4504 -0.0850395,0.106299 -0.211418,0.252756 -0.295276,0.362599 -0.0838584,0.109843 -0.197244,0.26693 -0.279922,0.379134l-5.65631 7.52363c-2.71418,2.91497 -5.67521,5.93741 -8.86182,8.27363l-3.43229 2.49804c-0.875198,0.657875 -1.00984,0.755907 -1.9004,1.39488l-1.91339 1.38071c-3.97205,2.85591 -8.81576,4.84607 -13.3205,6.45001l-4.59213 1.99843c-0.147638,0.0590552 -0.315355,0.137008 -0.464174,0.196063l-3.08386 0.869293c-1.94292,0.324804 -2.45552,0.264567 -4.50355,0.767718 -1.68425,0.414568 -2.59134,0.964962 -4.7882,1.14331 -15.0567,1.22835 -18.4134,0.440552 -30.9331,-1.99252 -3.38032,-0.657875 -0.654332,-0.0507875 -2.03622,-0.600001l-6.53741 -2.68819c-6.31182,-2.10709 -10.0973,-5.1508 -15.2551,-8.4697l-13.7858 -11.9162 -4.72205 -6.47954c-0.0885828,-0.106299 -0.209055,-0.258662 -0.296457,-0.36378l-1.77992 -2.17559 -7.51655 -15.5469c-4.88859,-10.6299 -5.2819,-29.7851 -3.34843,-41.2512 0.754726,-4.48465 2.63977,-8.68938 4.22245,-12.9118 0.0578741,-0.154725 0.112205,-0.333071 0.168898,-0.488977 0.056693,-0.158268 0.105118,-0.340158 0.161811,-0.497245l1.42441 -3.19016c0.210237,-0.424016 0.379134,-0.813781 0.638977,-1.33701 0.466536,-0.935435 0.418111,-0.741733 0.903545,-1.73268 0.648426,-1.32402 0.813781,-2.08583 1.39725,-3.21615 1.68307,-3.2563 4.24843,-6.58466 6.47599,-9.34017 4.52009,-5.5878 9.91183,-10.3854 15.5717,-14.7425l0.745277 -0.574017c4.60867,-3.33898 9.28584,-5.50749 14.511,-7.89332 10.3854,-4.7445 22.0122,-6.12993 33.4123,-6.12993 2.58071,0 14.517,2.55 17.739,3.34961 1.83307,0.455906 1.96772,0.616536 3.463,1.14921l11.9492 5.18505c0.708663,0.399213 0.688584,0.369686 1.2626,0.714568l0.807875 0.509056c0.121654,0.0755907 0.279922,0.185433 0.400394,0.261024l0.800789 0.516143c0.121654,0.0744096 0.283465,0.179528 0.405119,0.253937 4.07599,2.4567 9.22797,7.17285 13.9158,7.17285l7.24962 -7.24962c0,-7.42915 -4.54843,-8.60552 -9.51616,-12.2315 -0.111024,-0.0814962 -0.264567,-0.199607 -0.375591,-0.283465 -0.109843,-0.0826773 -0.261024,-0.204331 -0.370867,-0.288189l-2.70945 -1.90394c-0.127559,-0.0732285 -0.298819,-0.159449 -0.426379,-0.231496 -2.62087,-1.44331 -1.6063,-1.50473 -7.68781,-4.1752l-8.44371 -3.41812c-0.161811,-0.0531497 -0.337796,-0.105118 -0.497245,-0.16063l-1.89095 -0.745277c-8.4886,-3.45001 -21.0863,-4.42914 -30.0296,-4.89922 -7.30513,-0.383859 -21.4713,1.37717 -28.1622,4.12914l-9.90828 3.93071c-3.08623,1.11732 -4.7067,2.45433 -7.47403,3.72993l-5.39528 3.17126c-0.109843,0.0838584 -0.263386,0.20315 -0.372048,0.287008 -0.111024,0.0826773 -0.261024,0.205512 -0.370867,0.288189l-0.747639 0.570473c-2.48032,1.80236 -5.02678,3.06142 -7.30985,5.21103 -0.878742,0.827954 -0.612993,0.686222 -1.28504,1.35236 -0.396851,0.394489 -1.35118,1.20473 -1.76457,1.52953l-8.44135 8.69411c-3.00827,2.96811 -5.0941,6.25395 -7.32285,9.81025 -2.71654,4.33347 -5.35985,8.35513 -7.26261,13.1669l-0.986222 2.96693c-1.16929,2.82048 0.781891,-1.77284 -0.429922,0.88819 -0.512599,1.12677 -0.631891,1.42441 -0.95197,2.34449l-1.60394 4.3252c-2.79685,7.72206 -3.00237,17.2583 -4.10434,25.6052 -0.381497,2.89725 1.22835,17.7343 1.92638,20.3953l11.354 28.8461c0.713387,1.10433 0.312993,0.506694 0.989765,1.64646l14.1957 18.0957 7.80828 6.68859c0.468898,0.429922 1.33701,1.07717 1.86851,1.42795l18.0744 10.2626c4.65237,1.95591 8.81576,3.25985 13.8036,4.64883 0.168898,0.0484253 0.338977,0.102756 0.504331,0.154725 0.161811,0.0496064 0.323623,0.124016 0.481891,0.175985 0.157087,0.0531497 0.316536,0.134646 0.472442,0.187796 6.13111,2.07048 11.6209,2.62914 18.4595,2.62914z"/>
   <path id="_277950936" fill="#6B5933" d="M100.816 427.992c0,-4.0193 1.12677,-8.02206 2.863,-10.9772 0.0720474,-0.124016 0.177166,-0.283465 0.250394,-0.407481l3.09804 -4.80946c4.27914,-5.28308 10.7681,-7.97482 17.5134,-8.84765 2.17914,-0.282284 6.59883,0.960238 8.95159,1.59095 3.313,0.889371 6.38387,2.79095 8.86655,4.97481 1.42795,1.25551 3.90709,4.50591 4.92757,6.27403 2.96575,5.13662 1.78819,4.5319 2.84292,9.06616 1.00394,4.31103 0.401575,3.2941 -0.349607,7.27678 -1.16575,6.16891 -2.74016,8.9882 -6.4004,12.7205l-0.679135 0.638977c-0.0992128,0.0933072 -0.250394,0.217323 -0.350788,0.308268 -4.37835,4.01457 -1.31929,1.80355 -7.26733,4.59568l-2.76496 1.18819c-7.29332,1.66772 -17.3941,0.00472442 -22.0996,-4.65591 -0.320079,-0.317717 -0.728741,-0.839765 -0.922442,-1.05473l-2.25709 -2.3563c-0.896458,-0.988584 -0.317717,-0.251575 -1.20355,-1.43268 -2.50276,-3.34252 -5.01851,-8.5949 -5.01851,-14.0929zm-16.4752 -5.93032c0,6.50316 -0.635434,9.54568 0.807875,14.3481l1.07362 3.54095c3.17717,8.97049 4.17993,10.0689 10.1729,16.8461 1.51181,1.70788 2.70119,2.76851 4.50355,4.06418 1.32638,0.953151 1.30512,0.884647 2.79213,1.82008l1.20355 0.773623c2.6126,1.71733 1.86378,1.19173 4.79292,2.4567 7.67836,3.31654 13.5355,2.93977 21.4429,2.93977 3.37914,0 10.1729,-2.413 13.5732,-4.22009 2.89607,-1.54016 5.70828,-3.5752 8.18269,-5.65631 0.105118,-0.0874017 0.257481,-0.210237 0.361418,-0.297638l3.59292 -3.6567c0.0874017,-0.105118 0.211418,-0.255119 0.3,-0.360237 4.17166,-4.99253 3.11812,-4.07008 6.05198,-9.10395 1.27677,-2.18977 1.13504,-2.43307 1.94174,-4.64883 0.0555119,-0.153544 0.131103,-0.320079 0.186614,-0.473623 1.61693,-4.47638 2.07638,-19.3725 0.278741,-24.5044l-0.381497 -0.935435c-0.0555119,-0.154725 -0.12874,-0.32126 -0.18189,-0.477166 -2.02914,-5.90788 -1.62756,-4.60749 -5.38584,-10.4303 -2.69646,-4.17638 -3.47245,-4.62048 -6.87993,-7.6193 -2.49095,-2.19213 -3.42402,-3.10394 -6.42757,-4.7752l-3.06378 -1.54961c-8.19332,-3.63662 -13.8248,-3.66733 -22.6926,-3.66733 -3.24213,0 -0.744096,0.147638 -3.12874,0.825592 -5.94332,1.69016 -5.35158,0.361418 -12.939,4.85316l-1.24606 0.731103c-3.66969,2.22638 -4.68898,3.7063 -7.44804,6.39095l-7.35119 10.4421c-1.68898,3.42756 -0.889371,2.38111 -2.15315,5.75552l-1.01811 2.93504c-0.516143,1.63465 -0.961419,1.7563 -0.961419,3.65316z"/>
   <path id="_277951104" fill="#6B5933" d="M59.9564 290.918l118.623 0c5.76143,0 11.6162,-12.5681 1.99961,-15.8398 -1.54725,-0.857482 -1.35355,-0.551576 -1.99725,-0.637796 -2.39055,-0.318898 -7.82954,0.0011811 -10.5461,0.0011811 -9.29175,0.0011811 -107.433,-0.681497 -110.405,0.31063 -5.83465,1.94882 -9.17009,12.9638 2.32559,16.1658z"/>
   <path id="_277951080" fill="#6B5933" d="M57.9804 194.701c12.8232,0 119.726,0.844489 122.747,-0.487796 1.91103,-0.843308 4.20237,-4.60985 4.44213,-5.44253 1.51536,-5.28072 -3.16063,-9.59411 -7.90867,-10.5449l-117.305 0c-8.16261,0 -10.8543,14.2536 -1.97599,16.4752z"/>
   <path id="_277950264" fill="#6B5933" d="M52.708 217.108l0 3.95316 5.93151 5.93151 120.599 0c1.73859,0 1.09488,-0.0425198 2.92914,-1.68307 0.703938,-0.63071 0.496064,-0.474804 0.963781,-1.01339l1.1504 -1.48583c0.0755907,-0.121654 0.186614,-0.275197 0.255119,-0.4063 3.06615,-5.89489 -2.17087,-10.8957 -5.29843,-11.8866l-120.599 0c-1.12914,0 -5.93151,2.70237 -5.93151,6.59056z"/>
   <path id="_277950192" fill="#6B5933" d="M52.708 248.081c0,5.55591 0.788978,9.77836 7.24844,11.2028l117.305 0c4.54489,0 7.66655,-5.79095 7.90867,-6.58938 0.563387,-1.86733 0.106299,-5.27363 -2.20866,-7.67718 -1.30512,-1.35473 -2.47559,-1.95118 -4.3819,-2.20866l-120.599 0c-1.60276,0 -5.27245,3.67087 -5.27245,5.27245z"/>
   <path id="_277950048" fill="#6B5933" d="M357.172 252.036c-1.60866,-1.07717 -2.11536,-2.18504 -3.56693,-3.68268l-1.03347 -0.943702c-0.635434,-0.551576 -0.421654,-0.33189 -1.08543,-0.891734 -0.976773,-0.826773 -1.19646,-1.03465 -2.06811,-1.88504 -1.66181,-1.62756 -2.21339,-2.37402 -3.75237,-4.15631l-4.13623 -3.77245c-1.78701,-1.69961 -3.2126,-2.9693 -5.66694,-4.27205 -2.17323,-1.15512 -2.27481,-0.993309 -3.913,-0.44882 -5.1567,1.71496 -9.69332,7.67954 -4.85316,13.8815l6.09214 6.42993c0.103937,0.0885828 0.2563,0.210237 0.361418,0.297638 4.32284,3.56812 3.04252,2.89134 6.20552,6.31536l2.73189 2.54056c5.62087,4.57442 5.73899,7.9193 14.6847,9.04017 2.6504,0 4.3252,-0.617717 6.31182,-1.59567 2.54646,-1.25315 0.494883,0.263386 2.34804,-1.6063 1.27914,-1.29213 0.302363,-0.694489 2.25827,-2.35394l12.9803 -12.7229c1.82126,-1.82599 2.1874,-2.77205 4.15276,-4.41379l6.36379 -6.15828c0.559843,-0.611812 0.366142,-0.451182 0.922442,-1.05354l18.1087 -18.137c5.24292,-5.01851 10.6347,-8.73072 5.9941,-16.011 -2.31969,-3.6378 -8.58663,-4.33229 -12.2138,-1.4126l-9.96379 9.80671c-0.0992128,0.0933072 -0.246851,0.220866 -0.344882,0.315355l-22.6902 22.78c-0.134646,0.137008 -0.522048,0.526772 -0.656694,0.662599l-2.35158 2.26181c-0.137008,0.133465 -0.523229,0.523229 -0.656694,0.660237 -0.0944883,0.0968505 -0.22441,0.243307 -0.318898,0.340158 -0.132284,0.13937 -0.50315,0.544489 -0.636615,0.681497 -0.709844,0.726379 -1.11378,1.07126 -1.69961,1.59567 -0.584647,0.523229 -1.00394,0.856301 -1.70551,1.58977 -0.301182,0.314174 -0.766537,0.881104 -1.23662,1.39961l-1.97008 1.98426c-0.0968505,0.0944883 -0.242126,0.22441 -0.338977,0.320079l-2.6563 2.61496z"/>
   <path id="_277950360" fill="#6B5933" d="M183.852 458.307c0,5.34922 -0.772442,2.98937 5.27127,10.5437l105.443 0c1.53425,0 3.15355,-2.03504 4.17048,-3.07914 2.01969,-2.07284 2.78977,-5.17914 1.36181,-8.3823 -0.623623,-1.40079 -4.39016,-4.58032 -6.19253,-5.01379l-102.806 0c-1.52953,0 -2.50748,0.41693 -3.52796,1.08425 -0.825592,0.539765 -0.565749,0.440552 -1.05709,0.921261 -0.745277,0.72756 -2.66339,2.70591 -2.66339,3.92599z"/>
   <path id="_277950168" fill="#6B5933" d="M187.146 427.333c0,2.26772 0.846852,3.47717 2.24882,5.0008 1.26614,1.37599 1.37126,1.54134 2.9941,2.3126 3.73229,1.77402 3.40158,1.15276 5.64095,0.336615 3.56575,-1.29803 0.912994,0.26693 3.38504,-1.94882l8.13781 -7.67836c1.2189,0.816143 0.726379,0.447638 1.74213,1.55315 0.12874,0.13937 0.480709,0.56693 0.604725,0.714568 2.41181,2.88071 1.42205,1.7563 4.41379,4.15276l2.6126 2.00079c2.6563,1.33583 6.84214,2.12363 9.7382,2.12363 2.9256,0 -0.357875,-0.0496064 2.36221,-0.933072 1.06654,-0.347245 1.5378,-0.344882 2.59489,-0.701576 2.06457,-0.69567 4.60985,-2.82756 6.18544,-4.35709l4.67363 -4.55316c2.13189,2.02205 6.38151,6.80552 8.94214,8.19214 0.131103,0.0708663 0.296457,0.161811 0.432284,0.226772 6.53032,3.11339 12.4512,2.61733 18.5044,-1.62874 0.97323,-0.682678 0.501969,-0.325985 1.11969,-0.856301 2.78032,-2.38229 8.28545,-7.76812 8.27718,-11.8713 -0.00472442,-2.24528 -1.77874,-5.16851 -3.49607,-6.75355 -0.966143,-0.891734 -1.46929,-1.42205 -2.91378,-1.74803 -2.77559,-0.624804 -5.12481,0.269292 -7.14096,1.91811l-2.36693 2.24646c-1.81772,1.77992 -1.97953,1.66299 -4.22363,3.02599 -4.89568,-2.59016 -8.50986,-12.9673 -22.7646,-8.92797 -0.572836,0.161811 -2.02796,0.8126 -2.32205,0.975592 -1.90748,1.05473 -1.45748,1.00394 -2.9315,2.33977 -0.100394,0.090945 -0.242126,0.225591 -0.344882,0.315355 -3.84449,3.34371 -0.65197,-0.334252 -5.90552,5.95631l-9.01537 -8.11891c-3.81142,-2.72126 -12.4429,-4.05119 -19.0359,1.15512l-11.2902 11.7756c-0.325985,0.614174 -0.858663,2.91378 -0.858663,3.75473z"/>
  </g>
 </g>
</svg>
