<svg width="77" height="67" viewBox="0 0 77 67" fill="none" xmlns="http://www.w3.org/2000/svg">
<path d="M33.7814 34.1998C33.7696 33.7984 33.6219 33.4272 33.3811 33.1381C33.1242 32.8297 32.7619 32.6161 32.3475 32.5609C31.9279 32.5051 31.5218 32.6169 31.1964 32.8487C30.9096 33.0531 30.6851 33.354 30.5704 33.7178V60.2662C30.5704 60.778 30.3028 61.2252 29.9042 61.4674L22.0517 66.7711L22.0525 66.7723C21.4287 67.1937 20.5917 67.0135 20.1833 66.3698C20.0333 66.1335 19.9621 65.8675 19.9628 65.6047V24.9814C19.9628 24.2121 20.5673 23.5884 21.313 23.5884H55.5138C56.2595 23.5884 56.8641 24.2121 56.8641 24.9814C56.8641 25.0206 56.8624 25.0592 56.8594 25.0976L56.954 44.9267H56.9593C56.9619 45.4771 56.6548 45.9544 56.2067 46.183L50.5856 49.6626L50.5877 49.6664C49.9483 50.0622 49.1189 49.8482 48.7353 49.1886C48.6018 48.959 48.5398 48.7057 48.5428 48.4563V33.9773C48.4503 33.6593 48.2688 33.3858 48.0306 33.1844C47.7611 32.9565 47.4196 32.8199 47.0527 32.8144C46.6815 32.8088 46.3333 32.9354 46.056 33.1562C45.8171 33.3464 45.6306 33.6072 45.5273 33.914V51.1256C45.5273 51.6761 45.2178 52.1519 44.7685 52.3782L35.8018 57.7339V58.3954L35.8032 57.7369C35.1579 58.1224 34.3318 57.8951 33.9582 57.2293C33.8317 57.0039 33.7734 56.7571 33.7764 56.5143V34.3187C33.7764 34.2787 33.7781 34.239 33.7814 34.1998ZM35.4275 31.3315C36.0752 32.1091 36.4642 33.1167 36.4725 34.2067C36.4754 34.2436 36.4769 34.2809 36.4769 34.3186V54.119L42.8269 50.3262V33.754C42.8249 33.636 42.8374 33.5157 42.8661 33.3957L42.8692 33.3964C43.1075 32.399 43.6642 31.5519 44.4104 30.9577C45.1556 30.3645 46.0898 30.0242 47.0844 30.0392C48.0831 30.0544 49.0102 30.4236 49.7395 31.0404C50.4425 31.6349 50.9626 32.4592 51.1874 33.4178C51.2237 33.5439 51.2433 33.6774 51.2433 33.8157V46.0166L54.2603 44.1489L54.1755 26.3744H22.6632V63.0316L27.8699 59.5149V33.562C27.8676 33.446 27.8794 33.3277 27.9067 33.2096C28.1637 32.0979 28.8096 31.1739 29.6669 30.5632C30.521 29.9547 31.5856 29.6611 32.6851 29.8074C33.7896 29.9545 34.7503 30.5183 35.4275 31.3315ZM39.2472 2.78606H38.9376H38.0194H5.74049V3.74313L11.1122 8.94404H37.5431H39.4139H65.8449L71.2166 3.74313V2.78606H39.2472ZM38.0194 0H38.9376H39.2472H72.5668H73.9171V1.39303V4.34163L73.9171 4.94013L73.4898 5.35375L67.2975 11.3492L66.9041 11.7301H66.3745H39.4139H37.5431H10.5826H10.053L9.65955 11.3492L3.46721 5.35375L3.04002 4.94013L3.03999 4.34163V1.39303V0H4.39022H38.0194ZM67.2617 25.985C67.0491 25.2488 66.2981 24.8297 65.5845 25.0491C64.8708 25.2685 64.4646 26.0433 64.6773 26.7795C64.945 27.7008 65.5316 28.4375 66.2773 28.8975C67.0254 29.3589 67.9341 29.5401 68.841 29.3479C69.855 29.1332 70.7052 28.527 71.2884 27.7178C71.8755 26.9032 72.1951 25.874 72.137 24.8312C72.0726 23.6777 71.5989 22.4189 70.8589 21.4015C70.1517 20.429 69.1823 19.6456 68.0614 19.3285C66.3913 18.856 64.8583 19.0939 63.5673 19.8038C62.7038 20.2786 61.9608 20.9623 61.369 21.7819C60.7958 22.5757 60.3619 23.5055 60.0975 24.5C59.5879 26.4173 59.7157 28.5841 60.6995 30.4881C61.4807 32.0001 62.6829 33.177 64.1013 33.9126C65.5207 34.6487 67.1519 34.9426 68.7898 34.6881L68.7895 34.6858C70.7357 34.3995 72.4997 33.5104 73.8906 32.198C75.2861 30.8812 76.3034 29.1432 76.7505 27.1655C77.1979 25.186 77.0319 23.1645 76.3465 21.3506C75.6694 19.5587 74.4887 17.9721 72.8949 16.8303C72.0038 16.0855 70.8709 15.4952 69.4966 15.0597C68.1796 14.6424 66.6385 14.3665 64.8736 14.2324L64.7787 14.2269H40.2239H12.2213L12.1264 14.2324C10.3614 14.3665 8.82035 14.6424 7.50338 15.0597C6.12911 15.4952 4.99627 16.0855 4.10517 16.8303C2.51135 17.9721 1.33065 19.5587 0.653534 21.3506C-0.0318491 23.1645 -0.197932 25.186 0.249535 27.1655C0.696626 29.1433 1.7139 30.8812 3.1094 32.198C4.50036 33.5104 6.26422 34.3995 8.21053 34.6858L8.21021 34.6881C9.8481 34.9426 11.4792 34.6487 12.8987 33.9126C14.3171 33.177 15.5193 32.0001 16.3005 30.4881C17.2841 28.5841 17.4121 26.4173 16.9024 24.5C16.6381 23.5055 16.2042 22.5757 15.631 21.7819C15.0392 20.9624 14.2962 20.2786 13.4327 19.8038C12.1417 19.0939 10.6087 18.856 8.93859 19.3285C7.81773 19.6456 6.84827 20.429 6.14107 21.4015C5.40108 22.4189 4.92734 23.6777 4.86301 24.8312C4.8049 25.874 5.12449 26.9032 5.71157 27.7178C6.29482 28.5269 7.14503 29.1332 8.159 29.3479C9.06588 29.5401 9.97455 29.3589 10.7226 28.8975C11.4683 28.4375 12.055 27.7008 12.3227 26.7795C12.5354 26.0433 12.1291 25.2685 11.4155 25.0491C10.7019 24.8297 9.95089 25.2488 9.73826 25.985C9.67107 26.2162 9.52536 26.4002 9.34075 26.5141C9.15296 26.6298 8.92471 26.6754 8.69695 26.6271C8.36506 26.5569 8.07834 26.3468 7.87413 26.0636C7.65237 25.7558 7.53137 25.3705 7.55292 24.9835C7.58748 24.3633 7.86192 23.6593 8.29302 23.0665C8.66731 22.5519 9.14063 22.1485 9.64535 22.0057C10.5989 21.7359 11.4572 21.8623 12.1668 22.2526C12.6681 22.5282 13.1085 22.9378 13.4684 23.4361C13.8469 23.9602 14.1333 24.5736 14.3075 25.2291C14.6474 26.5078 14.5688 27.9399 13.927 29.1822C13.4131 30.1767 12.6248 30.9496 11.6962 31.4312C10.7686 31.9122 9.69558 32.1032 8.61107 31.9347H8.59528C7.19087 31.7306 5.92125 31.0932 4.92381 30.152C3.92727 29.2117 3.19902 27.9626 2.87615 26.5343C2.55366 25.1077 2.6722 23.6537 3.16412 22.3517C3.65475 21.0533 4.52022 19.9024 5.69293 19.0778L5.78783 19.0071C6.41742 18.4759 7.25313 18.0452 8.29454 17.7151C9.39007 17.368 10.7071 17.1339 12.2458 17.013H40.2239H64.7543C66.2929 17.1339 67.61 17.368 68.7055 17.7151C69.7469 18.0452 70.5826 18.4759 71.2122 19.0071L71.3071 19.0778C72.4799 19.9024 73.3453 21.0533 73.8359 22.3517C74.3278 23.6537 74.4464 25.1077 74.1239 26.5343C73.801 27.9626 73.0728 29.2117 72.0763 30.152C71.0788 31.0932 69.8092 31.7306 68.4048 31.9347H68.389C67.3045 32.1032 66.2315 31.9123 65.3039 31.4312C64.3752 30.9496 63.587 30.1767 63.0731 29.1822C62.4312 27.9399 62.3526 26.5078 62.6925 25.2291C62.8667 24.5736 63.1532 23.9602 63.5316 23.4361C63.8915 22.9377 64.332 22.5281 64.8333 22.2526C65.5429 21.8623 66.4011 21.736 67.3547 22.0057C67.8594 22.1485 68.3327 22.5519 68.707 23.0665C69.1381 23.6593 69.4126 24.3633 69.4471 24.9835C69.4687 25.3705 69.3477 25.7558 69.1259 26.0636C68.9217 26.3468 68.6351 26.5568 68.3031 26.6271C68.0754 26.6754 67.8471 26.6299 67.6593 26.5141C67.4748 26.4002 67.3289 26.2162 67.2617 25.985Z" fill="#A97E2F"/>
</svg>
