<svg width="4" height="6" viewBox="0 0 4 6" fill="none" xmlns="http://www.w3.org/2000/svg">
<path fill-rule="evenodd" clip-rule="evenodd" d="M1.09454 3.67327C1.07835 3.69912 1.08502 3.69424 1.04937 3.70235C0.939145 3.77374 0.737377 3.76521 0.60863 3.71749C0.479224 3.66952 0.387516 3.58407 0.326272 3.47777L0.325871 3.46958C0.288573 3.42014 0.269826 3.33935 0.268179 3.26693C0.266878 3.21057 0.281515 3.08341 0.315432 3.0555C0.328593 3.01251 0.311928 3.03343 0.345221 3.01069C0.350336 2.92038 0.570968 2.76749 0.722501 2.75574L1.3647 2.7487C1.37739 2.82695 1.37585 3.25171 1.36147 3.32523C1.33366 3.46761 1.20217 3.65851 1.09454 3.67327V3.67327ZM2.52883 2.38815L2.50591 2.40176C2.49221 2.45561 2.24954 2.52123 2.07978 2.49523C1.91712 2.47031 1.81328 2.38511 1.7448 2.30646C1.5366 2.06734 1.64539 1.74296 1.83979 1.60357C2.10595 1.41269 2.45464 1.4963 2.61633 1.68629C2.8469 1.95719 2.68802 2.31747 2.52884 2.38815H2.52883ZM0.472907 1.61184L0.492171 1.60176C0.577986 1.45868 1.15417 1.49796 1.36927 1.49796L1.36901 2.50204L0.794561 2.50185C0.624805 2.49692 0.478646 2.41819 0.406547 2.3388C0.135318 2.04017 0.325242 1.67304 0.472907 1.61184V1.61184ZM2.67255 0.524913L2.68202 0.544382C2.74907 0.620616 2.742 0.816323 2.70264 0.916118C2.65743 1.03074 2.58188 1.11096 2.49366 1.16627C2.29123 1.29317 1.91466 1.2513 1.63705 1.2513L1.63257 0.245176L2.29182 0.254259C2.46019 0.281329 2.63048 0.405665 2.67255 0.524914V0.524913ZM0.268967 0.733326C0.268967 0.552402 0.379071 0.404876 0.535546 0.315597C0.593079 0.282778 0.629306 0.268607 0.699653 0.255547C0.805148 0.235981 1.2131 0.245144 1.36928 0.244371C1.36878 0.434249 1.37748 1.1141 1.36586 1.25141L0.593568 1.20946C0.496829 1.16643 0.422634 1.11455 0.368134 1.0412C0.299954 0.949421 0.268967 0.865344 0.268967 0.733327V0.733326ZM0.440279 0.0847515C0.287187 0.141662 0.205553 0.268526 0.144084 0.311523C0.139784 0.33927 0.0938872 0.404474 0.0782121 0.434636C0.00892236 0.568022 -0.0143163 0.739655 0.017294 0.888083C0.047656 1.03062 0.112005 1.14667 0.208415 1.24444C0.236609 1.27304 0.280096 1.29982 0.29624 1.3351C0.338497 1.35035 0.332966 1.34982 0.362391 1.3782C0.324244 1.39825 0.332761 1.40438 0.285285 1.42045L0.277771 1.43308C0.2287 1.50347 0.171305 1.50358 0.0840336 1.67268C0.0271071 1.78298 -0.00461816 1.91469 0.00542154 2.05582C0.0143862 2.18183 0.0609725 2.29664 0.122182 2.39147L0.363503 2.62092C0.329413 2.66514 -0.118906 2.92395 0.0303207 3.44357C0.0751267 3.59963 0.176564 3.73224 0.272903 3.80761C0.507562 3.99113 0.603949 3.9485 0.714386 4H0.904273C0.946981 3.98163 1.05534 3.96848 1.11778 3.9441C1.196 3.91355 1.24342 3.87988 1.3094 3.85379C1.31276 3.83093 1.34639 3.82373 1.41169 3.76186C1.50654 3.672 1.61077 3.49027 1.62312 3.35753L1.63705 2.5598C1.83133 2.7372 2.1405 2.77615 2.41015 2.72111L2.48194 2.69818L2.61309 2.64895L2.65948 2.60898C2.69827 2.58059 2.66941 2.59244 2.71649 2.57954C2.72535 2.56325 2.71179 2.58323 2.72805 2.56061L2.77381 2.51574C2.92469 2.39488 3.00989 2.14393 2.99606 1.94414C2.98097 1.72594 2.81746 1.45984 2.63826 1.38068L2.71552 1.31683C3.03285 1.04997 3.09552 0.635401 2.84867 0.3151C2.7558 0.19458 2.69906 0.161632 2.5537 0.0796005C2.50759 0.0603084 2.47647 0.0460079 2.42433 0.0313214C2.38077 0.0190665 2.31873 0.0170215 2.28013 0H0.72124C0.681358 0.0168445 0.613176 0.0220622 0.569185 0.034752C0.520599 0.0487622 0.48615 0.0658636 0.440287 0.0847532L0.440279 0.0847515Z" fill="#ABA8A2"/>
<path d="M0.471 4.303V4.377H0.168V4.612H0.414V4.686H0.168V5H0.077V4.303H0.471ZM0.671906 4.303V5H0.580906V4.303H0.671906ZM1.355 4.505C1.33567 4.46433 1.30767 4.433 1.271 4.411C1.23433 4.38833 1.19167 4.377 1.143 4.377C1.09433 4.377 1.05033 4.38833 1.011 4.411C0.972333 4.433 0.941667 4.465 0.919 4.507C0.897 4.54833 0.886 4.59633 0.886 4.651C0.886 4.70567 0.897 4.75367 0.919 4.795C0.941667 4.83633 0.972333 4.86833 1.011 4.891C1.05033 4.913 1.09433 4.924 1.143 4.924C1.211 4.924 1.267 4.90367 1.311 4.863C1.355 4.82233 1.38067 4.76733 1.388 4.698H1.11V4.624H1.485V4.694C1.47967 4.75133 1.46167 4.804 1.431 4.852C1.40033 4.89933 1.36 4.937 1.31 4.965C1.26 4.99233 1.20433 5.006 1.143 5.006C1.07833 5.006 1.01933 4.991 0.966 4.961C0.912667 4.93033 0.870333 4.888 0.839 4.834C0.808333 4.78 0.793 4.719 0.793 4.651C0.793 4.583 0.808333 4.522 0.839 4.468C0.870333 4.41333 0.912667 4.371 0.966 4.341C1.01933 4.31033 1.07833 4.295 1.143 4.295C1.217 4.295 1.28233 4.31333 1.339 4.35C1.39633 4.38667 1.438 4.43833 1.464 4.505H1.355ZM2.31232 4.308V5H2.22132V4.484L1.99132 5H1.92732L1.69632 4.483V5H1.60532V4.308H1.70332L1.95932 4.88L2.21532 4.308H2.31232ZM2.87865 4.845H2.57465L2.51865 5H2.42265L2.67465 4.307H2.77965L3.03065 5H2.93465L2.87865 4.845ZM2.85265 4.771L2.72665 4.419L2.60065 4.771H2.85265Z" fill="#ABA8A2"/>
</svg>
