<svg  viewBox="0 0 125 125" 
fill="#ABA8A2" xmlns="http://www.w3.org/2000/svg">
<path  clip-rule="evenodd" d="M52.3635 91.8317C51.9588 92.478 52.1255 92.356 51.2343 92.5587C48.4786 94.3435 43.4344 94.1302 40.2158 92.9372C36.9806 91.738 34.6879 89.6018 33.1568 86.9443L33.1468 86.7395C32.2143 85.5035 31.7457 83.4838 31.7045 81.6733C31.672 80.2643 32.0379 77.0853 32.8858 76.3875C33.2148 75.3128 32.7982 75.8357 33.6305 75.2672C33.7584 73.0095 39.2742 69.1872 43.0625 68.8935L59.1175 68.7175C59.4348 70.6737 59.3963 81.2927 59.0368 83.1307C58.3415 86.6902 55.0543 91.4627 52.3635 91.8317ZM88.2208 59.7037L87.6478 60.044C87.3053 61.3903 81.2385 63.0307 76.9945 62.3807C72.928 61.7577 70.332 59.6277 68.62 57.6615C63.415 51.6835 66.1348 43.574 70.9948 40.0892C77.6488 35.3172 86.366 37.4075 90.4083 42.1573C96.1725 48.9298 92.2003 57.9367 88.2208 59.7037ZM36.8227 40.296L37.3043 40.044C39.4497 36.467 53.8543 37.449 59.2318 37.449L59.2253 62.551L44.864 62.5462C40.6201 62.423 36.9662 60.4547 35.1637 58.47C28.383 51.0042 33.1311 41.826 36.8227 40.296ZM91.8138 13.1228L92.0505 13.6095C93.7268 15.5154 93.55 20.4081 92.566 22.903C91.4358 25.7685 89.547 27.774 87.3415 29.1568C82.2808 32.3293 72.8665 31.2825 65.9263 31.2825L65.8143 6.1294L82.2955 6.35647C86.5048 7.03322 90.762 10.1416 91.8138 13.1228ZM31.7242 18.3332C31.7242 13.8101 34.4768 10.1219 38.3887 7.88992C39.827 7.06945 40.7327 6.71517 42.4913 6.38867C45.1287 5.89952 55.3275 6.1286 59.232 6.10927C59.2195 10.8562 59.437 27.8525 59.1465 31.2853L39.8392 30.2365C37.4207 29.1608 35.5659 27.8638 34.2034 26.03C32.4989 23.7355 31.7242 21.6336 31.7242 18.3332ZM36.007 2.11879C32.1797 3.54155 30.1388 6.71315 28.6021 7.78807C28.4946 8.48175 27.3472 10.1118 26.9553 10.8659C25.2231 14.2005 24.6421 18.4914 25.4324 22.2021C26.1914 25.7655 27.8001 28.6667 30.2104 31.111C30.9152 31.826 32.0024 32.4955 32.406 33.3775C33.4624 33.7588 33.3242 33.7455 34.0598 34.455C33.1061 34.9563 33.319 35.1095 32.1321 35.5112L31.9443 35.827C30.7175 37.5867 29.2826 37.5895 27.1008 41.817C25.6777 44.5745 24.8845 47.8672 25.1355 51.3955C25.3597 54.5457 26.5243 57.416 28.0546 59.7867L34.0876 65.523C33.2353 66.6285 22.0274 73.0987 25.758 86.0892C26.8782 89.9907 29.4141 93.306 31.8226 95.1903C37.6891 99.7783 40.0987 98.7125 42.8597 100H47.6068C48.6745 99.5407 51.3835 99.212 52.9445 98.6025C54.9 97.8387 56.0855 96.997 57.735 96.3448C57.819 95.7733 58.6598 95.5932 60.2923 94.0465C62.6635 91.8 65.2693 87.2568 65.578 83.9383L65.9263 63.995C70.7833 68.43 78.5125 69.4038 85.2538 68.0278L87.0485 67.4545L90.3273 66.2238L91.487 65.2245C92.4568 64.5147 91.7353 64.811 92.9123 64.4885C93.1338 64.0813 92.7948 64.5808 93.2013 64.0153L94.3453 62.8935C98.1173 59.872 100.247 53.5982 99.9015 48.6035C99.5243 43.1485 95.4365 36.496 90.9565 34.517L92.888 32.9208C100.821 26.2493 102.388 15.885 96.2168 7.8775C93.895 4.8645 92.4765 4.0408 88.8425 1.99001C87.6898 1.50771 86.9118 1.1502 85.6083 0.783035C84.5193 0.476662 82.9683 0.425537 82.0033 0H43.031C42.034 0.421112 40.3294 0.551555 39.2296 0.8688C38.015 1.21906 37.1536 1.64655 36.007 2.11879Z" />
<path d="M35.85 107.2V109.05H28.275V114.925H34.425V116.775H28.275V124.625H26V107.2H35.85ZM40.8726 107.2V124.625H38.5976V107.2H40.8726ZM57.95 112.25C57.4667 111.233 56.7668 110.45 55.85 109.9C54.9333 109.333 53.8667 109.05 52.65 109.05C51.4332 109.05 50.3333 109.333 49.35 109.9C48.3833 110.45 47.6167 111.25 47.05 112.3C46.5 113.333 46.225 114.533 46.225 115.9C46.225 117.267 46.5 118.467 47.05 119.5C47.6167 120.533 48.3833 121.333 49.35 121.9C50.3333 122.45 51.4332 122.725 52.65 122.725C54.35 122.725 55.75 122.217 56.85 121.2C57.95 120.183 58.5917 118.808 58.775 117.075H51.825V115.225H61.2V116.975C61.0667 118.408 60.6167 119.725 59.85 120.925C59.0832 122.108 58.075 123.05 56.825 123.75C55.575 124.433 54.1832 124.775 52.65 124.775C51.0332 124.775 49.5582 124.4 48.225 123.65C46.8917 122.883 45.8333 121.825 45.05 120.475C44.2833 119.125 43.9 117.6 43.9 115.9C43.9 114.2 44.2833 112.675 45.05 111.325C45.8333 109.958 46.8917 108.9 48.225 108.15C49.5582 107.383 51.0332 107 52.65 107C54.5 107 56.1332 107.458 57.55 108.375C58.9832 109.292 60.025 110.583 60.675 112.25H57.95ZM81.883 107.325V124.625H79.608V111.725L73.858 124.625H72.258L66.483 111.7V124.625H64.208V107.325H66.658L73.058 121.625L79.458 107.325H81.883ZM96.0413 120.75H88.4413L87.0413 124.625H84.6413L90.9413 107.3H93.5663L99.8412 124.625H97.4413L96.0413 120.75ZM95.3913 118.9L92.2413 110.1L89.0913 118.9H95.3913Z" />
</svg>
