<svg width="128" height="128" viewBox="0 0 128 128" fill="none" xmlns="http://www.w3.org/2000/svg">
<g clip-path="url(#clip0_14_2)">
<path d="M64 0C46.612 0 44.44 0.08 37.616 0.384C30.8 0.704 26.16 1.776 22.08 3.36C17.8077 4.96498 13.9376 7.48367 10.74 10.74C7.48085 13.9353 4.96173 17.8061 3.36 22.08C1.776 26.16 0.7 30.8 0.384 37.616C0.064 44.444 0 46.616 0 64C0 81.388 0.08 83.56 0.384 90.384C0.704 97.196 1.776 101.84 3.36 105.92C4.96637 110.192 7.48487 114.061 10.74 117.26C13.9367 120.517 17.8072 123.036 22.08 124.64C26.164 126.22 30.804 127.3 37.616 127.616C44.444 127.936 46.616 128 64 128C81.388 128 83.56 127.92 90.384 127.616C97.196 127.296 101.84 126.216 105.92 124.64C110.191 123.032 114.06 120.513 117.26 117.26C120.518 114.064 123.037 110.193 124.64 105.92C126.22 101.84 127.3 97.196 127.616 90.384C127.936 83.556 128 81.384 128 64C128 46.612 127.92 44.44 127.616 37.616C127.296 30.804 126.216 26.156 124.64 22.08C123.033 17.8088 120.515 13.939 117.26 10.74C114.066 7.47974 110.195 4.96045 105.92 3.36C101.84 1.776 97.196 0.7 90.384 0.384C83.556 0.064 81.384 0 64 0ZM64 11.52C81.08 11.52 83.12 11.604 89.868 11.9C96.108 12.192 99.492 13.228 101.744 14.112C104.744 15.272 106.864 16.656 109.116 18.892C111.348 21.132 112.736 23.26 113.892 26.256C114.768 28.508 115.812 31.896 116.096 38.136C116.4 44.884 116.468 46.912 116.468 64C116.468 81.088 116.388 83.12 116.076 89.868C115.748 96.108 114.708 99.492 113.828 101.744C112.636 104.744 111.276 106.864 109.036 109.116C106.967 111.234 104.453 112.865 101.676 113.892C99.436 114.768 95.996 115.812 89.756 116.096C82.96 116.4 80.96 116.468 63.84 116.468C46.716 116.468 44.716 116.388 37.924 116.076C31.68 115.748 28.24 114.708 26 113.828C22.964 112.636 20.88 111.276 18.644 109.036C16.5031 106.981 14.8612 104.464 13.844 101.676C12.964 99.436 11.932 95.996 11.604 89.756C11.364 83.036 11.28 80.96 11.28 63.92C11.28 46.876 11.364 44.796 11.604 37.996C11.932 31.756 12.964 28.32 13.844 26.08C14.964 23.04 16.4 20.96 18.644 18.716C20.88 16.48 22.964 15.04 26 13.92C28.24 13.04 31.604 12 37.844 11.68C44.644 11.44 46.644 11.36 63.76 11.36L64 11.52ZM64 31.136C59.6841 31.1355 55.4104 31.9852 51.4229 33.6366C47.4354 35.2879 43.8123 37.7087 40.7605 40.7605C37.7087 43.8123 35.2879 47.4354 33.6366 51.4229C31.9852 55.4104 31.1355 59.6841 31.136 64C31.136 82.16 45.856 96.864 64 96.864C82.16 96.864 96.864 82.144 96.864 64C96.864 45.84 82.144 31.136 64 31.136ZM64 85.336C61.1982 85.3365 58.4237 84.785 55.8351 83.7129C53.2464 82.6408 50.8944 81.0691 48.9134 79.0878C46.9324 77.1064 45.3612 74.7541 44.2896 72.1653C43.218 69.5764 42.6669 66.8018 42.668 64C42.6675 61.1985 43.2189 58.4243 44.2907 55.836C45.3626 53.2476 46.9339 50.8958 48.9148 48.9148C50.8958 46.9339 53.2476 45.3626 55.836 44.2907C58.4243 43.2189 61.1985 42.6675 64 42.668C66.8015 42.6675 69.5757 43.2189 72.164 44.2907C74.7524 45.3626 77.1042 46.9339 79.0852 48.9148C81.0661 50.8958 82.6374 53.2476 83.7093 55.836C84.7811 58.4243 85.3325 61.1985 85.332 64C85.3325 66.8015 84.7811 69.5757 83.7093 72.164C82.6374 74.7524 81.0661 77.1042 79.0852 79.0852C77.1042 81.0661 74.7524 82.6374 72.164 83.7093C69.5757 84.7811 66.8015 85.3365 64 85.336ZM105.844 29.84C105.844 34.08 102.4 37.52 98.164 37.52C93.924 37.52 90.484 34.076 90.484 29.84C90.5484 27.846 91.3857 25.9553 92.819 24.5675C94.2522 23.1798 96.169 22.4039 98.164 22.4039C100.159 22.4039 102.076 23.1798 103.509 24.5675C104.942 25.9553 105.78 27.846 105.844 29.84Z" fill="#ABA8A2"/>
</g>
<defs>
<clipPath id="clip0_14_2">
<rect width="128" height="128" fill="white"/>
</clipPath>
</defs>
</svg>
