
<svg xmlns="http://www.w3.org/2000/svg" xml:space="preserve" shape-rendering="geometricPrecision" text-rendering="geometricPrecision" image-rendering="optimizeQuality" fill-rule="evenodd" clip-rule="evenodd"
viewBox="0 0 2433 2433"
 xmlns:xlink="http://www.w3.org/1999/xlink">
 <g id="Camada_x0020_1">
  <metadata id="CorelCorpID_0Corel-Layer"/>
  <path fill="#ABA8A2" d="M1.2685 0.93189l0 2426.81 2426.81 0.0011811 0 -2426.81 -2426.81 0zm1283.67 2067.9c-35.8205,72.7854 -104.197,120.604 -183.428,143.687 -121.749,27.9567 -238.196,12.0177 -324.824,-39.9732 -57.972,-35.5677 -103.246,-90.3165 -133.981,-153.394l184.827 -113.186c1.6122,0.679134 6.46417,9.45472 12.9496,20.7921 23.5689,39.489 43.8969,67.4457 83.8512,87.0744 39.2563,13.3961 125.438,21.9579 158.714,-47.1189 20.3268,-35.1402 13.8614,-148.094 13.8614,-273.065 -0.0200787,-196.378 0.892913,-391.941 0.892913,-586.087l227.324 0c0,213.56 1.16457,415.82 0,624.215 0.485433,127.748 11.5713,241.633 -40.1882,337.056zm943.042 -64.2236c-79.0169,270.289 -519.572,279.064 -695.622,100.491 -37.1976,-42.0331 -60.515,-63.9909 -82.7067,-112.507 93.5587,-53.8169 93.5587,-53.8169 184.593,-106.488 49.4492,76.0075 95.1697,117.807 177.43,134.911 111.594,13.6287 223.869,-24.7146 198.689,-143.241 -25.8803,-96.8008 -228.509,-120.35 -366.41,-223.867 -139.997,-94.024 -172.808,-322.494 -57.7583,-453.038 38.3433,-48.2835 103.731,-84.3165 172.342,-101.635l71.6008 -9.26102c137.474,-2.77677 223.403,33.5291 286.481,103.964 17.55,17.7827 31.878,36.965 58.6701,78.5303 -73.2307,46.6736 -72.9992,46.226 -177.894,114.138 -22.4043,-48.2646 -59.5831,-78.5516 -98.8783,-91.7138 -60.9992,-18.4831 -137.921,1.61102 -153.879,66.0661 -5.53346,19.8614 -4.3878,38.3433 4.40669,71.1543 24.7146,56.3598 107.654,80.8618 182.049,115.05 214.161,86.8618 286.481,179.992 304.264,290.849 17.1236,95.4413 -4.13504,157.355 -7.37598,166.596l-0.0011811 0.0011811z"/>
 </g>
</svg>
