<svg width="17" height="21" viewBox="0 0 17 21" fill="none" xmlns="http://www.w3.org/2000/svg">
<g clip-path="url(#clip0_4_2)">
<path fill-rule="evenodd" clip-rule="evenodd" d="M6.55125 11.189H13.4595L12.8426 16.8423C12.3295 16.8831 11.4448 17.1917 10.8956 17.339C8.04634 18.103 9.13025 17.9107 4.94749 16.8423L4.70086 14.0157H6.55128C6.55128 14.8648 6.50784 14.6328 6.67455 15.429C8.93161 16.0276 8.56326 16.1645 9.9914 15.769C11.3285 15.3987 10.975 15.9432 11.3623 12.9557H4.57747L5.07097 7.30234H12.966L13.3361 10.2468H11.4857V9.18679H6.55131V11.189L6.55125 11.189ZM8.89505 21.2002C9.51854 21.2002 14.7559 19.6324 15.4331 19.4334L15.751 15.6147C15.945 14.3238 15.9083 13.1186 16.1023 11.8278C16.343 10.2256 16.6742 5.99045 16.7901 4.1223H0.999998C0.999998 4.82294 2.0579 16.6426 2.28554 18.206C2.52832 19.8732 2.06649 19.4329 3.74063 19.8791C4.61927 20.1133 5.34511 20.3224 6.23318 20.5615C6.75853 20.7029 8.50273 21.2002 8.89502 21.2002L8.89505 21.2002Z" fill="black"/>
<path fill-rule="evenodd" clip-rule="evenodd" d="M9.38854 0.942363L10.1287 1.88455H9.38854V2.94458H11.8558C11.8558 1.75115 12.0181 2.20909 11.1155 1.06013H11.8558V9.15527e-05H9.38854V0.942356V0.942363Z" fill="black"/>
<path fill-rule="evenodd" clip-rule="evenodd" d="M7.29157 1.88427H5.93433V2.94449H8.40145V0H7.29157V1.88427Z" fill="black"/>
</g>
<defs>
<clipPath id="clip0_4_2">
<rect width="17" height="21" fill="white"/>
</clipPath>
</defs>
</svg>
