<svg width="120" height="22" viewBox="0 0 120 22" fill="none" xmlns="http://www.w3.org/2000/svg">
<g clip-path="url(#clip0_1_2)">
<path d="M71.7957 12.8279C71.7957 13.6078 71.4868 14.2068 70.8726 14.6185C70.258 15.0335 69.4827 15.2424 68.5469 15.2424C67.3651 15.2424 66.4544 15.0086 65.8148 14.5468C65.175 14.085 64.8535 13.4144 64.8535 12.5345H66.3315C66.3315 13.1211 66.5396 13.5112 66.9586 13.7044C67.3777 13.9011 67.8819 13.9977 68.4713 13.9977C69.0636 13.9977 69.5078 13.8885 69.8009 13.6702C70.0972 13.4486 70.2452 13.171 70.2452 12.8279C70.2452 12.5844 70.1224 12.3412 69.8765 12.0979C69.6308 11.8544 69.0132 11.6579 68.0301 11.5112C66.8956 11.3647 66.1205 11.087 65.7045 10.6721C65.2854 10.2572 65.0742 9.70814 65.0742 9.02483C65.0742 8.44133 65.3577 7.91737 65.925 7.4556C66.4922 6.9908 67.3147 6.76001 68.3986 6.76001C69.3851 6.76001 70.1602 6.97833 70.7242 7.41817C71.2916 7.85499 71.5752 8.44133 71.5752 9.17152H70.0972C70.0972 8.73469 69.9365 8.42905 69.6182 8.25742C69.2967 8.089 68.8904 8.00149 68.3986 8.00149C67.759 8.00149 67.3021 8.11396 67.031 8.33227C66.7601 8.55059 66.6278 8.80652 66.6278 9.09969C66.6278 9.43973 66.7507 9.70814 66.9964 9.90453C67.2422 10.0981 67.759 10.2448 68.5469 10.3414C69.8261 10.5379 70.6897 10.8436 71.1309 11.2554C71.5752 11.6703 71.7957 12.1945 71.7957 12.8279Z" fill="#DEDCE1"/>
<path d="M51.5184 14.8857H49.6626V7.11668H51.5184V14.8857Z" fill="#DEDCE1"/>
<path d="M33.9658 18.8515H32.11V3.15089H33.9658V18.8515Z" fill="#DEDCE1"/>
<path fill-rule="evenodd" clip-rule="evenodd" d="M6.92324 3.06166C8.28872 2.30464 9.856 1.92622 11.6253 1.92622C13.3293 1.92622 14.8473 2.29386 16.18 3.02914C17.5124 3.76443 18.5499 4.79722 19.2926 6.12716C20.0355 7.45728 20.4066 8.98721 20.4066 10.7173C20.4066 11.3877 20.3631 11.9933 20.2756 12.5339H6.48105C6.59026 13.9612 7.12542 15.1074 8.08653 15.9726C9.04763 16.8375 10.2274 17.2702 11.6253 17.2702C13.6349 17.2702 15.0548 16.4376 15.885 14.7723H19.9152C19.3691 16.4158 18.3805 17.762 16.9499 18.8109C15.519 19.8598 13.7441 20.3843 11.6253 20.3843C9.89951 20.3843 8.35418 20.0004 6.98889 19.2328C5.6236 18.465 4.55329 17.3836 3.77775 15.9888C3.00222 14.5939 2.61464 12.9772 2.61464 11.139C2.61464 9.3008 2.99152 7.68431 3.74491 6.28936C4.49867 4.8944 5.55813 3.81849 6.92324 3.06166ZM22.485 11.0012C22.485 4.92652 17.5111 0.00239563 11.3754 0.00239563C5.23949 0.00239563 0.265747 4.92652 0.265747 11.0012C0.265747 17.0759 5.23949 22 11.3754 22C17.5111 22 22.485 17.0759 22.485 11.0012ZM11.4615 5.04049C10.1727 5.04049 9.0696 5.44594 8.15201 6.25702C7.23462 7.06791 6.68839 8.16534 6.5137 9.54954H16.5076C16.4856 8.18709 15.994 7.09494 15.0331 6.27308C14.0718 5.45141 12.8814 5.04049 11.4615 5.04049Z" fill="#A87F3C"/>
<path fill-rule="evenodd" clip-rule="evenodd" d="M97.8771 11.0012C97.8771 4.92652 102.851 0.00239563 108.987 0.00239563C115.123 0.00239563 120.096 4.92652 120.096 11.0012C120.096 17.0759 115.123 22 108.987 22C102.851 22 97.8771 17.0759 97.8771 11.0012ZM108.987 4.62086C112.546 4.62086 115.431 7.4775 115.431 11.0012C115.431 14.5249 112.546 17.3815 108.987 17.3815C105.428 17.3815 102.542 14.5249 102.542 11.0012C102.542 7.47752 105.428 4.62086 108.987 4.62086ZM108.987 2.15983C113.919 2.15983 117.917 6.11808 117.917 11.0012C117.917 15.8843 113.919 19.8425 108.987 19.8425C104.054 19.8425 100.056 15.8843 100.056 11.0012C100.056 6.11807 104.054 2.15983 108.987 2.15983Z" fill="#A87F3C"/>
<path d="M87.0445 17.113H85.1925V4.88945H87.0445V17.113Z" fill="#DEDCE1"/>
</g>
<defs>
<clipPath id="clip0_1_2">
<rect width="120" height="22" fill="white"/>
</clipPath>
</defs>
</svg>
