<svg width="120" height="25" viewBox="0 0 214 37" fill="none" xmlns="http://www.w3.org/2000/svg">
<path d="M116.299 20.9887C116.299 22.2648 115.799 23.2449 114.804 23.9185C113.808 24.5976 112.552 24.9394 111.036 24.9394C109.122 24.9394 107.647 24.5568 106.611 23.8012C105.574 23.0457 105.054 21.9484 105.054 20.5088H107.448C107.448 21.4684 107.785 22.1068 108.464 22.4228C109.143 22.7448 109.959 22.9028 110.914 22.9028C111.873 22.9028 112.593 22.7241 113.068 22.3669C113.548 22.0044 113.787 21.5501 113.787 20.9888C113.787 20.5904 113.589 20.1924 113.19 19.7944C112.792 19.396 111.792 19.0744 110.199 18.8344C108.362 18.5947 107.106 18.1404 106.432 17.4615C105.753 16.7827 105.411 15.8843 105.411 14.7663C105.411 13.8115 105.87 12.9542 106.789 12.1987C107.708 11.4382 109.04 11.0606 110.796 11.0606C112.394 11.0606 113.65 11.4178 114.563 12.1375C115.483 12.8522 115.942 13.8115 115.942 15.0063H113.548C113.548 14.2915 113.287 13.7915 112.772 13.5106C112.251 13.2351 111.593 13.0919 110.796 13.0919C109.76 13.0919 109.02 13.2759 108.581 13.6331C108.142 13.9903 107.928 14.4091 107.928 14.8887C107.928 15.4451 108.127 15.8843 108.525 16.2056C108.923 16.5223 109.76 16.7623 111.036 16.9203C113.109 17.242 114.507 17.7421 115.222 18.416C115.942 19.0948 116.299 19.9524 116.299 20.9887Z" fill="#DEDCE1"/>
<path d="M83.4526 24.3558H80.4465V11.6442H83.4526V24.3558Z" fill="#DEDCE1"/>
<path d="M55.0199 30.8444H52.0138V5.1554H55.0199V30.8444Z" fill="#DEDCE1"/>
<path fill-rule="evenodd" clip-rule="evenodd" d="M11.2147 5.0094C13.4266 3.77078 15.9654 3.15162 18.8314 3.15162C21.5916 3.15162 24.0506 3.75315 26.2093 4.95621C28.3677 6.15927 30.0482 7.84911 31.2513 10.0251C32.4547 12.2015 33.0559 14.7047 33.0559 17.5354C33.0559 18.6324 32.9854 19.6233 32.8437 20.5078H10.4984C10.6753 22.8431 11.5422 24.7185 13.099 26.134C14.6559 27.5493 16.5669 28.2572 18.8313 28.2572C22.0867 28.2572 24.3867 26.8948 25.7314 24.1702H32.2598C31.3753 26.8593 29.7739 29.0619 27.4565 30.778C25.1386 32.4942 22.2636 33.3524 18.8313 33.3524C16.0358 33.3524 13.5326 32.7243 11.321 31.4683C9.10944 30.2121 7.37568 28.4427 6.11942 26.1607C4.86317 23.8782 4.23535 21.2331 4.23535 18.2254C4.23535 15.2178 4.84585 12.5729 6.06622 10.2905C7.28722 8.00811 9.00339 6.24772 11.2147 5.0094ZM36.4226 17.9999C36.4226 8.06066 28.3655 0.00389099 18.4265 0.00389099C8.48724 0.00389099 0.430466 8.06066 0.430466 17.9999C0.430466 27.9392 8.48724 35.996 18.4265 35.996C28.3655 35.996 36.4226 27.9392 36.4226 17.9999ZM18.566 8.24714C16.4784 8.24714 14.6915 8.91052 13.2051 10.2376C11.7191 11.5644 10.8343 13.36 10.5513 15.6248H26.74C26.7044 13.3956 25.908 11.6086 24.3515 10.2639C22.7943 8.91949 20.866 8.24714 18.566 8.24714Z" fill="#A87F3C"/>
<path fill-rule="evenodd" clip-rule="evenodd" d="M158.547 17.9999C158.547 8.06066 166.604 0.00389099 176.543 0.00389099C186.483 0.00389099 194.539 8.06066 194.539 17.9999C194.539 27.9392 186.483 35.996 176.543 35.996C166.604 35.996 158.547 27.9392 158.547 17.9999ZM176.543 7.56055C182.309 7.56055 186.983 12.2345 186.983 17.9999C186.983 23.7653 182.309 28.4393 176.543 28.4393C170.778 28.4393 166.104 23.7654 166.104 17.9999C166.104 12.2346 170.778 7.56055 176.543 7.56055ZM176.543 3.53386C184.533 3.53386 191.01 10.0103 191.01 17.9999C191.01 25.9896 184.533 32.466 176.543 32.466C168.554 32.466 162.077 25.9896 162.077 17.9999C162.077 10.0103 168.554 3.53386 176.543 3.53386Z" fill="#A87F3C"/>
<path d="M141 28H138V8H141V28Z" fill="#DEDCE1"/>
</svg>
