<svg  viewBox="0 0 125 125" xmlns="http://www.w3.org/2000/svg" fill="#ABA8A2">
<g clip-path="url(#clip0_1_5)">
<path fill-rule="evenodd" clip-rule="evenodd" d="M55.2394 97.2868H68.6753V106.656H55.2394V97.2868ZM7.20308 81.4262H116.711V90.9428H7.20308V81.4262ZM7.20308 20.3441H116.711V75.0819H7.20308V20.3441ZM1.67065 14.6638L1.1437 14.8113V15.0327H0.880122C0.843373 15.3145 0.817889 15.2215 0.655332 15.3602C0.528116 15.4694 0.495985 15.6965 0.441211 15.844H0.177556C0.177556 16.3496 -0.00653487 16.4087 0.000179294 16.9492C0.0814564 23.2434 0.00193261 29.5418 0.00193261 35.836V93.6722C0.00193261 95.0943 -0.0121734 94.7802 0.441211 95.8852H0.7045C0.762807 96.3322 0.673726 95.8978 0.81861 96.1582C1.00307 96.4891 1.27345 96.6007 1.67065 96.6966V96.9178C2.19895 96.9178 2.33423 97.0389 2.83426 97.1947L3.33257 97.2921C3.57711 97.3005 3.87748 97.2872 4.12946 97.2868H47.687V106.656C47.2124 106.656 46.6672 106.599 46.1953 106.657C45.6369 106.726 46.2148 106.628 45.8266 106.79L45.2247 106.948C45.204 106.954 45.1818 106.962 45.1608 106.968C44.7561 107.088 44.6547 107.078 44.5254 107.467H44.262V107.688H43.9986C43.9618 107.97 43.9362 107.877 43.7739 108.016C43.6465 108.125 43.6142 108.352 43.5593 108.5H43.2963V109.09H43.0325V110.492H43.2963C43.2963 110.905 43.4109 111.145 43.5593 111.525H43.8231L43.9986 111.967L44.2654 112.038C44.4209 112.113 44.4581 112.276 44.5254 112.41H44.9643V112.631C45.278 112.631 45.3517 112.683 45.6204 112.744C45.7703 112.778 45.709 112.759 45.8443 112.777C46.2039 112.826 46.3655 112.95 46.7209 113H77.1938C77.5969 113 77.5879 112.84 77.9896 112.784L78.9501 112.631V112.41H79.3889C79.4197 112.1 79.5945 112.042 79.9157 111.967C79.9499 111.705 79.9037 111.917 79.9774 111.798L80.3182 111.42C80.5192 111.101 80.5853 110.888 80.6184 110.492H80.8818V109.09H80.6184V108.5H80.355C80.355 108.059 80.3967 108.235 80.1404 108.016L79.9157 107.688H79.6523L79.4769 107.246C79.0109 107.203 79.3863 107.229 79.1748 107.131L77.9851 106.728C77.6556 106.607 76.7365 106.654 76.2273 106.656V97.2868H119.873C120.426 97.2879 120.709 97.2876 121.206 97.1528C121.426 97.093 121.528 97.0903 121.747 97.0172L121.998 96.9331C122.16 96.8801 121.995 96.9845 122.297 96.815C122.318 96.8032 122.375 96.7632 122.395 96.7503L122.541 96.6513C122.784 96.5013 122.885 96.3326 123.034 96.1068H123.297C123.35 95.7074 123.307 96.0451 123.407 95.8296C123.415 95.8128 123.424 95.793 123.432 95.7767L123.737 95.0738H124V16.2867H123.737V15.8441H123.473C123.473 15.4703 123.444 15.362 123.034 15.2539V15.0328H122.771C122.724 14.6736 122.606 14.7555 122.244 14.6638C122.204 14.3547 122.241 14.4848 121.974 14.3743L121.522 14.2378C120.618 14.0849 120.746 14.0327 120.575 14H3.33929C3.05447 14 3.23857 14.0739 2.92441 14.168C2.58835 14.2684 2.24237 14.2505 1.94058 14.3743C1.67272 14.4848 1.71093 14.3547 1.67065 14.6638Z"/>
<path fill-rule="evenodd" clip-rule="evenodd" d="M41.0865 33.535V33.7563L40.5664 33.9038V34.1986H40.3064C40.2846 34.3695 40.2797 34.2968 40.2429 34.3656C40.2357 34.379 40.2237 34.4012 40.2151 34.4155L39.9329 34.8391C39.8619 35.0088 39.8991 35.042 39.8322 35.1956C39.7784 35.319 39.6616 35.3745 39.6131 35.5255C39.5579 35.6987 39.5455 53.1008 39.6601 53.4728C39.6601 53.4728 39.7232 53.616 39.7315 53.6331L39.8164 53.782C39.8235 53.7995 39.8333 53.8178 39.8397 53.8361C39.9351 54.1243 39.795 54.2732 40.1185 55.1475C40.1572 55.2522 40.1711 55.2624 40.1914 55.3058L40.2658 55.4642C40.2733 55.4821 40.279 55.5023 40.2861 55.5206L40.5664 56.3141H40.8268C40.8542 56.5967 40.8772 56.527 41.0226 56.7372C41.0324 56.7509 41.0455 56.7691 41.0549 56.7832C41.0812 56.8217 41.1278 56.8975 41.1462 56.9268L41.5201 57.5672H41.7801C41.7801 58.0215 41.7384 57.798 41.9575 58.0059L42.2134 58.3779H42.4734C42.5038 58.6875 42.6763 58.7457 42.9934 58.8203V59.0416C43.3921 59.0785 43.3012 59.1406 43.4271 59.4102H43.6867V59.6314C43.9858 59.6592 43.9535 59.7993 44.6404 60C44.678 60.3849 44.9598 60.3693 45.334 60.442V60.6633C45.7034 60.6979 45.7575 60.8137 46.0341 60.9523C46.0506 60.9607 46.0724 60.9709 46.0893 60.9793L46.8934 61.3277C46.913 61.3342 46.9351 61.3422 46.955 61.3487L47.0839 61.3863C47.4931 61.5067 47.6299 61.579 48.0207 61.6217C48.0748 62.0432 48.3018 61.7923 48.6065 61.9343C49.0397 62.1365 48.8673 62.0641 49.6676 62.0641V62.285H51.1414C51.2515 62.5172 51.274 62.4445 51.8305 62.4361L53.5744 62.438C54.3236 62.4106 53.6988 62.3585 54.2658 62.2888C54.6254 62.2446 55.1462 62.3375 55.4814 62.2168L55.7684 62.0927C56.0769 62.0165 56.3328 62.0782 56.665 61.9705L57.2951 61.8429V61.6217C57.7987 61.6217 57.5563 61.6415 57.7569 61.5722L58.398 61.3064C59.0289 61.0993 59.6665 60.8167 60.2441 60.5174L60.347 60.4577C60.3621 60.4489 60.3812 60.4348 60.3959 60.4253L60.9355 60.2212V60H61.1959V59.7787C61.4146 59.7582 61.4837 59.6828 61.6532 59.5781L62.0624 59.4102V59.1889C62.431 59.1821 62.4986 59.0934 62.5824 58.8203H62.8428V58.5995H63.1025C63.1524 58.2119 63.0826 58.5405 63.2475 58.2804L63.5361 57.7885H63.7957C63.8284 57.536 64.002 57.3913 64.3162 57.1987C64.3368 57.0361 64.3477 57.0943 64.3785 57.0304L64.5739 56.6808C64.583 56.6656 64.5942 56.6469 64.6029 56.6317L65.2097 55.4521C65.2184 55.4365 65.2278 55.417 65.2353 55.4007C65.3311 55.1981 65.4149 54.9837 65.4389 54.7629C65.4923 54.2785 65.3702 54.6075 65.5344 54.328C65.8166 53.8483 65.6223 53.5669 65.7068 53.0742C65.7952 52.5586 65.7534 53.1042 65.859 52.6873C65.859 52.6873 65.9883 36.104 65.8166 35.6498C65.8098 35.6323 65.7982 35.6151 65.791 35.5979L65.6986 35.2342C65.6246 34.8922 65.6385 35.0817 65.4833 34.8275L64.6622 33.7566C64.344 33.5101 63.9058 33.336 63.4752 33.2182L62.6553 32.9569C62.5813 32.9421 62.2341 32.9352 62.1458 32.9367C62.1131 32.9376 61.9155 32.9438 61.8914 32.9468C61.4552 33.0014 62.0628 32.8916 61.7486 32.9732L61.4604 33.0969C61.3075 33.1491 61.4307 33.1159 61.2583 33.1461L60.7577 33.2363C60.3467 33.401 60.4756 33.5151 59.8954 33.535C59.8518 33.8741 59.7789 33.7967 59.4621 33.9038V34.1986H59.2021L59.0289 34.7884H58.7689C58.7689 35.9648 58.5088 34.5232 58.5088 37.1473C58.5088 39.0829 58.6445 52.5643 58.4288 53.0761L57.5555 54.4708H57.2951V54.692C56.9355 54.7176 57.12 54.6917 56.9028 54.8009L56.5485 55.0157C56.4271 55.1059 56.3971 55.2293 56.3415 55.3553C56.1401 55.3553 56.0029 55.3515 55.821 55.4292C55.8041 55.4364 55.7838 55.4494 55.7677 55.4574C55.7451 55.4681 55.6861 55.505 55.6647 55.5168L55.5584 55.5743C55.3705 55.671 55.2356 55.7079 54.9549 55.7243V55.9455C54.2598 55.9455 54.3462 56.0369 53.9103 56.0887C53.3253 56.1584 51.7922 56.1877 51.2642 56.0617L51.1414 56.019C50.8949 55.9448 50.6228 55.9577 50.3609 55.9455V55.7243L49.9224 55.6546L49.2344 55.3553V55.1345L48.4539 54.9137V54.692H48.1943C48.1507 54.3532 48.0778 54.4305 47.7607 54.3235C47.7054 53.8913 47.7802 54.3014 47.6746 54.1022L47.5164 53.8677C47.3725 53.672 47.3515 53.5486 47.3274 53.2916H47.0674V36.2627C46.7856 36.1659 46.8825 36.1523 46.8976 35.5961C46.9077 35.2179 46.9062 35.2042 46.5473 35.0093V34.5671H46.2869C46.2486 34.2674 46.2201 34.3867 46.0972 34.2129L45.8537 33.7563L45.1604 33.535V33.314C44.708 33.314 43.8231 32.972 43.6867 32.9453C43.3681 32.883 42.848 32.937 42.5835 33.039C42.5658 33.0462 42.5463 33.0589 42.5286 33.0657C42.5102 33.0728 42.4907 33.085 42.4723 33.0918L42.0488 33.1737C42.0221 33.1779 41.9992 33.1788 41.9736 33.1835L41.8376 33.2153C41.5415 33.3036 41.6794 33.2817 41.5032 33.3733C41.2029 33.5288 41.5032 33.4961 41.0865 33.535Z" />
<path fill-rule="evenodd" clip-rule="evenodd" d="M76.4483 33.7562C76.4099 34.054 76.2983 34.0813 76.2051 34.2127L76.015 34.5669H75.7546V35.0092H75.495L75.3214 37.221V58.3044C75.3214 58.9015 75.4386 59.8279 75.495 60.442H75.7546V60.8106H76.015C76.0616 61.1743 76.0097 60.8929 76.16 61.1297C76.3228 61.3871 76.0545 60.9797 76.2247 61.2219L76.4483 61.6217H76.7083C76.7139 61.667 76.6162 61.9377 77.2606 62.0363L77.5752 62.0641V62.285C77.8945 62.285 78.0246 62.2587 78.2951 62.3364C78.5337 62.4049 78.1256 62.3672 78.6194 62.4289C78.7133 62.4407 78.9414 62.4365 79.047 62.4365C79.3536 62.4369 79.5156 62.4537 79.7685 62.3809C79.9597 62.3265 79.7309 62.2914 80.5218 62.285V62.0641L81.2155 61.9164V61.6217L81.7355 61.4743V61.2531H81.9956C82.0583 60.7646 82.0512 61.3928 82.4468 60.3838C82.4544 60.3659 82.4608 60.3457 82.4683 60.3282C82.4728 60.3183 82.6516 59.9615 82.6888 59.7049V35.5253C82.6888 35.2975 82.6321 35.4399 82.5228 35.2245L82.3428 34.7876C82.3345 34.7722 82.3232 34.7535 82.3142 34.7384L81.9956 34.1985H81.7355V33.9036L81.2155 33.7562V33.5349C80.9092 33.5064 80.7364 33.2593 80.3283 33.1833C80.2028 33.1599 80.148 33.1733 80.0228 33.1487C79.3348 33.0134 79.7519 32.9451 78.6153 32.9451C78.4052 32.9451 78.3815 33.0822 78.0689 33.1442L77.5691 33.2353L77.081 33.4835C77.0671 33.4931 77.0483 33.5079 77.0344 33.5174L76.892 33.6173C76.877 33.6263 76.8571 33.6396 76.8413 33.6479C76.8248 33.6562 76.8045 33.6687 76.7876 33.6761C76.5816 33.7657 76.8105 33.7304 76.4483 33.7562Z"/>
</g>
<defs>
<clipPath id="clip0_1_5">
<rect width="125" height="125"/>
</clipPath>
</defs>
</svg>
