<svg width="33" height="27" viewBox="0 0 33 27" fill="none" xmlns="http://www.w3.org/2000/svg">
<path fill-rule="evenodd" clip-rule="evenodd" d="M14.7008 21.8733H18.2765V24.3338H14.7008V21.8733ZM1.91695 17.7079H31.0603V20.2072H1.91695V17.7079ZM1.91695 1.66612H31.0603V16.0417H1.91695V1.66612ZM0.444608 0.174319L0.304373 0.213067V0.271226H0.234226C0.224446 0.345211 0.217664 0.320809 0.174403 0.357217C0.140547 0.385907 0.131996 0.445548 0.117419 0.484295H0.0472528C0.0472528 0.617064 -0.00173912 0.632579 4.77152e-05 0.774547C0.0216779 2.42757 0.000514323 4.08168 0.000514323 5.7347V20.924C0.000514323 21.2975 -0.00323968 21.215 0.117419 21.5052H0.187488C0.203005 21.6226 0.179298 21.5085 0.217856 21.5769C0.266947 21.6638 0.338902 21.6931 0.444608 21.7183V21.7764C0.585204 21.7764 0.621207 21.8082 0.75428 21.8491L0.886893 21.8747C0.951972 21.8769 1.03191 21.8734 1.09897 21.8733H12.6909V24.3338C12.5646 24.3338 12.4195 24.3188 12.2939 24.3341C12.1453 24.3522 12.2991 24.3266 12.1958 24.369L12.0356 24.4107C12.0301 24.4122 12.0242 24.4143 12.0186 24.4159C11.9109 24.4473 11.8839 24.4448 11.8495 24.547H11.7794V24.605H11.7093C11.6995 24.6791 11.6927 24.6546 11.6495 24.6911C11.6156 24.7198 11.607 24.7794 11.5924 24.8182H11.5224V24.9732H11.4522V25.3413H11.5224C11.5224 25.4499 11.5529 25.5128 11.5924 25.6125H11.6626L11.7093 25.7288L11.7803 25.7474C11.8217 25.7671 11.8316 25.8099 11.8495 25.845H11.9663V25.9032C12.0498 25.9032 12.0694 25.9167 12.1409 25.9328C12.1808 25.9418 12.1645 25.9367 12.2005 25.9415C12.2962 25.9542 12.3392 25.9869 12.4338 26H20.5435C20.6508 26 20.6484 25.9579 20.7553 25.9432L21.0109 25.9032V25.845H21.1277C21.1359 25.7637 21.1824 25.7484 21.2679 25.7288C21.277 25.66 21.2647 25.7155 21.2843 25.6842L21.375 25.5851C21.4285 25.5012 21.4461 25.4453 21.4549 25.3413H21.525V24.9732H21.4549V24.8182H21.3848C21.3848 24.7023 21.3959 24.7487 21.3277 24.6911L21.2679 24.605H21.1978L21.1511 24.4888C21.0271 24.4776 21.127 24.4845 21.0707 24.4586L20.7541 24.3529C20.6664 24.3209 20.4218 24.3335 20.2863 24.3338V21.8733H31.9017C32.0488 21.8736 32.1241 21.8735 32.2564 21.8381C32.3151 21.8224 32.3421 21.8217 32.4005 21.8025L32.4673 21.7804C32.5104 21.7665 32.4665 21.7939 32.5468 21.7494C32.5525 21.7463 32.5675 21.7358 32.5729 21.7324L32.6117 21.7064C32.6765 21.667 32.7032 21.6227 32.743 21.5634H32.813C32.8269 21.4585 32.8157 21.5472 32.8422 21.4906C32.8442 21.4862 32.8466 21.481 32.8488 21.4767L32.9299 21.2921H33V0.60054H32.9299V0.484299H32.8598C32.8598 0.386145 32.8521 0.357688 32.743 0.32931V0.27123H32.6728C32.6604 0.176896 32.6289 0.198413 32.5326 0.174323C32.5219 0.0931654 32.532 0.127313 32.4608 0.0983108L32.3404 0.062448C32.0999 0.0222978 32.134 0.00857581 32.0886 0H0.888682C0.812882 0 0.861877 0.019413 0.778271 0.0441268C0.688834 0.0704779 0.59676 0.0658007 0.516446 0.0983108C0.44516 0.127313 0.455329 0.0931652 0.444608 0.174323V0.174319Z" fill="#ABA8A2"/>
<path fill-rule="evenodd" clip-rule="evenodd" d="M10.9343 5.13041V5.18853L10.7959 5.22725V5.30469H10.7267C10.7209 5.34956 10.7196 5.33047 10.7098 5.34855C10.7079 5.35205 10.7047 5.3579 10.7024 5.36164L10.6273 5.47289C10.6084 5.51745 10.6183 5.52617 10.6005 5.56653C10.5862 5.59894 10.5551 5.61351 10.5422 5.65316C10.5275 5.69866 10.5242 10.2689 10.5547 10.3666C10.5552 10.3681 10.5715 10.4042 10.5737 10.4087L10.5963 10.4478C10.5982 10.4524 10.6008 10.4572 10.6025 10.462C10.6279 10.5377 10.5906 10.5768 10.6767 10.8064C10.687 10.8339 10.6907 10.8366 10.6961 10.848L10.7159 10.8896C10.7179 10.8943 10.7194 10.8996 10.7213 10.9044L10.7959 11.1128H10.8652C10.8725 11.187 10.8786 11.1687 10.9173 11.2239C10.9199 11.2275 10.9234 11.2323 10.9259 11.236C10.9329 11.2461 10.9453 11.266 10.9502 11.2737L11.0497 11.4419H11.1189C11.1189 11.5612 11.1078 11.5025 11.1661 11.5571L11.2342 11.6548H11.3034C11.3115 11.7361 11.3574 11.7514 11.4418 11.771V11.8291C11.5479 11.8388 11.5237 11.8551 11.5572 11.9259H11.6263V11.984C11.7059 11.9913 11.6973 12.0281 11.8801 12.0808C11.8901 12.1819 11.9651 12.1778 12.0647 12.1969V12.255C12.163 12.2641 12.1774 12.2945 12.251 12.3309C12.2554 12.3331 12.2612 12.3358 12.2657 12.338L12.4797 12.4295C12.4849 12.4312 12.4908 12.4333 12.4961 12.435L12.5304 12.4449C12.6393 12.4765 12.6757 12.4955 12.7797 12.5067C12.7941 12.6174 12.8545 12.5515 12.9356 12.5888C13.0509 12.6419 13.005 12.6229 13.218 12.6229V12.6809H13.6102C13.6395 12.7419 13.6455 12.7228 13.7936 12.7206L14.2577 12.7211C14.4571 12.7139 14.2908 12.7002 14.4417 12.6819C14.5374 12.6703 14.676 12.6947 14.7652 12.663L14.8416 12.6304C14.9237 12.6104 14.9918 12.6266 15.0802 12.5983L15.2479 12.5648V12.5067C15.3819 12.5067 15.3174 12.5119 15.3708 12.4937L15.5414 12.4239C15.7093 12.3695 15.879 12.2953 16.0327 12.2167L16.0601 12.201C16.0641 12.1987 16.0692 12.195 16.0731 12.1925L16.2167 12.1389V12.0808H16.286V12.0227C16.3442 12.0173 16.3626 11.9975 16.4077 11.97L16.5166 11.9259V11.8678C16.6147 11.866 16.6327 11.8427 16.655 11.771H16.7243V11.713H16.7934C16.8067 11.6112 16.7881 11.6975 16.832 11.6292L16.9088 11.5H16.9779C16.9866 11.4337 17.0328 11.3957 17.1164 11.3451C17.1219 11.3024 17.1248 11.3177 17.133 11.3009L17.185 11.2091C17.1874 11.2051 17.1904 11.2002 17.1927 11.1962L17.3542 10.8864C17.3565 10.8823 17.359 10.8772 17.361 10.8729C17.3865 10.8197 17.4088 10.7634 17.4152 10.7054C17.4294 10.5782 17.3969 10.6646 17.4406 10.5912C17.5157 10.4652 17.464 10.3913 17.4865 10.2619C17.51 10.1265 17.4989 10.2698 17.527 10.1603C17.5271 10.16 17.5614 5.80508 17.5157 5.6858C17.5139 5.68121 17.5108 5.67669 17.5089 5.67217L17.4843 5.57666C17.4646 5.48683 17.4683 5.53662 17.427 5.46985L17.2085 5.18861C17.1238 5.12387 17.0072 5.07814 16.8926 5.04721L16.6744 4.97857C16.6547 4.97468 16.5623 4.97288 16.5388 4.97327C16.5301 4.97351 16.4775 4.97514 16.4711 4.97592C16.355 4.99026 16.5167 4.96143 16.4331 4.98286L16.3564 5.01534C16.3157 5.02905 16.3485 5.02033 16.3026 5.02828L16.1694 5.05196C16.06 5.0952 16.0943 5.12519 15.9399 5.13041C15.9283 5.21946 15.9089 5.19913 15.8246 5.22725V5.30469H15.7554L15.7093 5.45957H15.6401C15.6401 5.76854 15.5709 5.38992 15.5709 6.07908C15.5709 6.58742 15.607 10.128 15.5496 10.2624L15.3172 10.6287H15.2479V10.6868C15.1522 10.6935 15.2013 10.6867 15.1435 10.7154L15.0492 10.7718C15.0169 10.7955 15.0089 10.8279 14.9941 10.861C14.9405 10.861 14.904 10.86 14.8556 10.8804C14.8511 10.8823 14.8457 10.8857 14.8414 10.8878C14.8354 10.8906 14.8197 10.9003 14.814 10.9034L14.7857 10.9185C14.7357 10.9439 14.6998 10.9536 14.6251 10.9579V11.016C14.4401 11.016 14.4631 11.04 14.3471 11.0536C14.1914 11.0719 13.7834 11.0796 13.6429 11.0465L13.6102 11.0353C13.5446 11.0158 13.4722 11.0192 13.4025 11.016V10.9579L13.2858 10.9396L13.1027 10.861V10.803L12.895 10.745V10.6868H12.8259C12.8143 10.5978 12.7949 10.6181 12.7105 10.59C12.6958 10.4765 12.7157 10.5842 12.6876 10.5319L12.6455 10.4703C12.6072 10.4189 12.6016 10.3865 12.5952 10.319H12.526V5.84676C12.451 5.82136 12.4768 5.81778 12.4808 5.6717C12.4835 5.57237 12.4831 5.56879 12.3876 5.5176V5.40145H12.3183C12.3081 5.32276 12.3005 5.35408 12.2678 5.30843L12.203 5.18853L12.0185 5.13041V5.07237C11.8981 5.07237 11.6626 4.98254 11.6263 4.97553C11.5415 4.95917 11.4031 4.97335 11.3327 5.00015C11.328 5.00202 11.3228 5.00537 11.3181 5.00716C11.3132 5.00903 11.308 5.01223 11.3031 5.01402L11.1904 5.03552C11.1833 5.03661 11.1772 5.03685 11.1704 5.03809L11.1342 5.04643C11.0554 5.06964 11.0921 5.06388 11.0452 5.08795C10.9653 5.12877 11.0453 5.1202 10.9344 5.13041H10.9343Z" fill="#ABA8A2"/>
<path fill-rule="evenodd" clip-rule="evenodd" d="M20.3451 5.18849C20.3349 5.26671 20.3052 5.27387 20.2804 5.30839L20.2298 5.40141H20.1605V5.51756H20.0914L20.0452 6.09844V11.6355C20.0452 11.7923 20.0764 12.0356 20.0914 12.1969H20.1605V12.2937H20.2298C20.2422 12.3892 20.2284 12.3153 20.2684 12.3775C20.3117 12.4451 20.2403 12.3381 20.2856 12.4017L20.3451 12.5067H20.4143C20.4158 12.5186 20.3898 12.5897 20.5613 12.6156L20.645 12.6229V12.6809C20.73 12.6809 20.7646 12.674 20.8366 12.6944C20.9001 12.7124 20.7915 12.7025 20.9229 12.7187C20.9479 12.7218 21.0086 12.7207 21.0367 12.7207C21.1183 12.7208 21.1614 12.7252 21.2287 12.7061C21.2796 12.6918 21.2187 12.6826 21.4292 12.6809V12.6229L21.6138 12.5841V12.5067L21.7522 12.468V12.4099H21.8214C21.8381 12.2816 21.8362 12.4466 21.9415 12.1816C21.9435 12.1769 21.9452 12.1716 21.9472 12.167C21.9484 12.1644 21.996 12.0707 22.0059 12.0033V5.65312C22.0059 5.59329 21.9908 5.63068 21.9617 5.57412L21.9138 5.45937C21.9116 5.45532 21.9086 5.45041 21.9062 5.44644L21.8214 5.30465H21.7522V5.22721L21.6138 5.18849V5.13037C21.5323 5.12289 21.4863 5.058 21.3777 5.03805C21.3443 5.0319 21.3297 5.0354 21.2964 5.02894C21.1133 4.99341 21.2243 4.97549 20.9218 4.97549C20.8659 4.97549 20.8596 5.01149 20.7764 5.02777L20.6434 5.05169L20.5135 5.11689C20.5098 5.11939 20.5048 5.12328 20.5011 5.12577L20.4632 5.15203C20.4592 5.15437 20.4539 5.15787 20.4497 5.16005C20.4453 5.16224 20.4399 5.16551 20.4354 5.16745C20.3806 5.19098 20.4415 5.18171 20.3451 5.18849V5.18849Z" fill="#ABA8A2"/>
</svg>
