
<svg xmlns="http://www.w3.org/2000/svg" xml:space="preserve" width="200px" height="200px" shape-rendering="geometricPrecision" text-rendering="geometricPrecision" image-rendering="optimizeQuality" fill-rule="evenodd" clip-rule="evenodd"
viewBox="0 0 200 200"
 xmlns:xlink="http://www.w3.org/1999/xlink"
 version="1.1">
 <g id="Camada_x0020_1">
  <metadata id="CorelCorpID_0Corel-Layer"/>
  <g id="_195165512">
   <g id="XMLID_468_">
    <path id="XMLID_469_" fill="#ABA8A2" d="M146.704 114.978c-0.383535,-0.184093 -14.738,-7.25265 -17.2887,-8.1707 -1.0414,-0.373953 -2.15693,-0.738977 -3.34344,-0.738977 -1.93833,0 -3.5666,0.965953 -4.83488,2.86335 -1.43395,2.13135 -5.7746,7.2054 -7.11591,8.72112 -0.175163,0.200093 -0.414233,0.439163 -0.557488,0.439163 -0.128465,0 -2.35005,-0.914791 -3.02251,-1.20698 -15.3983,-6.68884 -27.0863,-22.7738 -28.689,-25.4862 -0.228837,-0.389953 -0.238419,-0.56707 -0.240372,-0.56707 0.0562791,-0.206512 0.574047,-0.725581 0.841302,-0.993488 0.78186,-0.773488 1.62893,-1.79321 2.44847,-2.77963 0.388,-0.467349 0.776744,-0.935256 1.15842,-1.37637 1.18902,-1.38344 1.71842,-2.4574 2.33209,-3.70149l0.321581 -0.646326c1.49851,-2.97712 0.218605,-5.48949 -0.194977,-6.30074 -0.339442,-0.678884 -6.40047,-15.307 -7.04493,-16.8438 -1.54958,-3.70847 -3.59721,-5.43516 -6.4427,-5.43516 -0.264,0 0,0 -1.10726,0.0466977 -1.34828,0.0569302 -8.69042,1.02353 -11.9367,3.06986 -3.44251,2.17033 -9.26642,9.08865 -9.26642,21.2555 0,10.9503 6.94902,21.2894 9.93256,25.2216 0.0741395,0.0990698 0.210326,0.300465 0.407907,0.589395 11.426,16.6866 25.6698,29.0528 40.1092,34.8211 13.9012,5.55284 20.4839,6.1947 24.2262,6.1947 0.000651163,0 0.000651163,0 0.000651163,0 1.57265,0 2.83135,-0.123349 3.94186,-0.232744l0.704465 -0.0671628c4.80233,-0.425767 15.3556,-5.89423 17.7561,-12.5651 1.89098,-5.25423 2.38967,-10.9951 1.13153,-13.0784 -0.86186,-1.41665 -2.34698,-2.1294 -4.22707,-3.03209z"/>
    <path id="XMLID_470_" fill="#ABA8A2" d="M101.206 1.8374c-53.3263,0 -96.7107,43.0582 -96.7107,95.9839 0,17.118 4.58112,33.8742 13.2593,48.5394l-16.6104 48.9978c-0.309395,0.913581 -0.0792558,1.92363 0.596465,2.61144 0.487721,0.498047 1.1494,0.766512 1.82512,0.766512 0.258884,0 0.519721,-0.0389767 0.77414,-0.120186l51.0915 -16.2353c13.9811,7.47005 29.7829,11.4131 45.7752,11.4131 53.3213,0.000651163 96.7011,-43.0531 96.7011,-95.9728 0,-52.9257 -43.3798,-95.9839 -96.7018,-95.9839zm0 171.963c-15.048,0 -29.623,-4.34521 -42.1517,-12.5664 -0.421302,-0.276837 -0.910326,-0.418698 -1.4026,-0.418698 -0.260186,0 -0.521023,0.0396279 -0.774791,0.120186l-25.5937 8.13553 8.26214 -24.3753c0.267256,-0.788837 0.133581,-1.65898 -0.358605,-2.33144 -9.54065,-13.0363 -14.584,-28.4385 -14.584,-44.5433 0,-41.9006 34.364,-75.9897 76.6027,-75.9897 42.2336,0 76.5938,34.0891 76.5938,75.9897 0.00055814,41.8953 -34.359,75.9793 -76.5932,75.9793z"/>
   </g>
  </g>
 </g>
</svg>
